<svg width="409" height="324" viewBox="0 0 409 324" fill="none" xmlns="http://www.w3.org/2000/svg">
<path d="M390.952 135.381C373.132 65.1858 311.562 14.5144 239.291 12.482C201.084 11.4076 160.879 24.1021 131.607 68.5252C79.2806 147.936 134.823 202.811 173.546 228.887C192.254 241.51 209.11 256.688 223.628 273.982C249.784 305.077 300.102 343.716 360.028 283.174C403.463 239.293 402.821 182.139 390.952 135.381Z" fill="#F2F2F2"/>
<path d="M166.648 323.853C179.163 320.587 191.195 317.81 202.745 315.523L198.307 300.658C199.851 299.799 206.535 308.401 206.535 308.401L200.901 265.409C208.618 267.133 212.194 310.984 212.194 310.984L220.95 296.373L216.634 312.918C251.977 306.735 282.473 304.817 308.107 305.277L304.309 292.555C305.853 291.696 312.537 300.298 312.537 300.298L306.903 257.306C314.62 259.03 318.195 302.88 318.195 302.88L326.951 288.27L322.38 305.794C343.863 306.975 361.368 309.804 374.871 312.89C371.085 293.116 357.833 274.102 357.833 274.102C368.028 279.41 373.328 288.05 376.07 296.058C376.483 271.754 375.409 226.652 365.095 176.522C365.095 176.522 385.63 253.914 382.512 305.499L382.115 314.662C400.018 319.34 409 324 409 324L166.648 323.853Z" fill="#3F3D56"/>
<path d="M244.229 311.915C244.142 311.772 242.088 308.337 241.376 301.205C240.723 294.661 241.143 283.631 246.853 268.244C257.671 239.096 244.361 215.578 244.224 215.343L244.881 214.962C244.916 215.021 248.35 221.017 250.379 230.565C253.06 243.224 252.084 256.386 247.565 268.509C236.766 297.608 244.794 311.383 244.877 311.519L244.229 311.915Z" fill="#3F3D56"/>
<path d="M239.999 213.632C242.723 213.632 244.932 211.419 244.932 208.69C244.932 205.96 242.723 203.747 239.999 203.747C237.274 203.747 235.065 205.96 235.065 208.69C235.065 211.419 237.274 213.632 239.999 213.632Z" fill="#309975"/>
<path d="M255.558 231.88C258.282 231.88 260.491 229.667 260.491 226.938C260.491 224.208 258.282 221.996 255.558 221.996C252.833 221.996 250.625 224.208 250.625 226.938C250.625 229.667 252.833 231.88 255.558 231.88Z" fill="#3F3D56"/>
<path d="M244.932 244.046C247.657 244.046 249.866 241.833 249.866 239.103C249.866 236.374 247.657 234.161 244.932 234.161C242.208 234.161 239.999 236.374 239.999 239.103C239.999 241.833 242.208 244.046 244.932 244.046Z" fill="#309975"/>
<path d="M257.835 254.31C260.559 254.31 262.768 252.098 262.768 249.368C262.768 246.639 260.559 244.426 257.835 244.426C255.11 244.426 252.901 246.639 252.901 249.368C252.901 252.098 255.11 254.31 257.835 254.31Z" fill="#309975"/>
<path d="M241.137 270.278C243.862 270.278 246.071 268.065 246.071 265.335C246.071 262.606 243.862 260.393 241.137 260.393C238.413 260.393 236.204 262.606 236.204 265.335C236.204 268.065 238.413 270.278 241.137 270.278Z" fill="#3F3D56"/>
<path d="M247.209 312.097C247.209 312.097 242.276 299.931 257.076 290.807L247.209 312.097Z" fill="#3F3D56"/>
<path d="M241.142 311.876C241.142 311.876 238.897 298.939 221.52 299.05L241.142 311.876Z" fill="#3F3D56"/>
<path d="M316.689 106.94C307.262 106.94 299.621 115.436 299.621 125.917V139.233H303.708L306.075 134.299L305.483 139.233H331.759L333.91 134.748L333.372 139.233H336.331V128.777C336.331 116.717 327.537 106.94 316.689 106.94Z" fill="#2F2E41"/>
<path d="M300.657 168.503L297.822 179.39L324.282 178.444L323.81 169.45C323.81 169.45 303.965 164.243 300.657 168.503Z" fill="#A0616A"/>
<path d="M275.143 212.052L283.647 230.986L291.68 221.046L285.065 207.792L275.143 212.052Z" fill="#A0616A"/>
<path d="M296.405 281.635L297.35 303.409H307.745L306.327 281.635H296.405Z" fill="#A0616A"/>
<path d="M284.12 192.171L288.845 207.792L295.933 283.528C295.933 283.528 302.548 285.422 307.272 283.055L308.217 272.641L310.107 212.999C310.107 212.999 319.085 208.265 318.14 201.638C317.195 195.011 314.832 186.017 314.832 186.017L284.12 192.171Z" fill="#2F2E41"/>
<path d="M298.767 298.202H295.932C295.932 298.202 287.9 306.723 285.065 307.669C282.23 308.616 267.582 316.663 279.395 318.083C291.207 319.503 298.767 313.35 298.767 313.35C298.767 313.35 302.547 315.716 307.745 313.823C312.942 311.93 310.107 306.249 310.107 306.249C310.107 306.249 307.469 297.592 307.37 297.66C307.272 297.729 304.437 301.989 298.767 298.202Z" fill="#2F2E41"/>
<path d="M313.415 136.315C319.417 136.315 324.282 131.441 324.282 125.428C324.282 119.415 319.417 114.541 313.415 114.541C307.413 114.541 302.547 119.415 302.547 125.428C302.547 131.441 307.413 136.315 313.415 136.315Z" fill="#A0616A"/>
<path d="M329.48 139.629L324.481 143.804L323.81 144.362L323.337 150.043H304.91C304.91 150.043 307.423 147.86 309.758 145.603C309.805 145.55 309.857 145.494 309.913 145.442C310.23 145.134 310.513 144.85 310.769 144.594C310.906 144.452 311.038 144.32 311.156 144.197C311.35 143.993 311.539 143.799 311.728 143.605C311.73 143.602 311.732 143.599 311.732 143.596C312.216 143.089 312.67 142.554 313.093 141.996L313.098 141.991C313.211 141.84 313.317 141.684 313.415 141.522C314.832 139.155 311.525 134.422 311.525 134.422L321.92 129.215C322.283 134.346 326.616 137.773 328.553 139.061C329.12 139.435 329.48 139.629 329.48 139.629Z" fill="#A0616A"/>
<path d="M354.995 219.152C347.907 221.046 347.435 206.845 347.435 206.845L337.761 187.463C335.717 183.368 334.312 178.983 333.594 174.461L331.37 160.456L330.694 161.266V161.271L329.48 161.876L322.099 150.043L320.03 146.729V142.942L327.117 139.629H329.952C329.952 139.629 330.014 139.619 330.122 139.61C331.426 139.473 339.912 138.905 340.347 147.202C340.518 150.459 340.503 153.157 340.415 155.274C340.146 161.131 340.701 166.997 342.063 172.699C342.563 174.755 343.109 176.54 343.655 177.497C345.545 180.811 352.16 206.845 352.16 206.845C352.16 206.845 362.082 217.259 354.995 219.152Z" fill="#A0616A"/>
<path d="M311.525 144.836L309.734 148.107L308.675 150.043L303.492 159.51C303.492 159.51 302.023 160.712 299.641 162.265C295.682 164.844 289.19 168.385 282.702 168.977C272.307 169.923 282.23 136.315 282.23 136.315C282.23 136.315 285.537 123.061 290.262 124.482C294.987 125.902 291.207 130.635 287.9 139.629C284.592 148.623 287.427 158.563 287.427 158.563C287.427 158.563 297.35 152.409 302.547 147.676C305.255 145.21 307.579 144.542 309.181 144.471H309.186C309.716 144.442 310.249 144.483 310.769 144.594C311.029 144.646 311.282 144.727 311.525 144.836Z" fill="#A0616A"/>
<path d="M313.094 141.996C313.075 142.048 312.853 142.469 311.156 144.197C311.848 143.505 312.496 142.77 313.094 141.996Z" fill="#D0CDE1"/>
<path d="M331.133 160.693L330.694 161.271L323.81 173.237C323.81 173.237 314.832 169.923 308.217 168.977C306.4 168.663 304.53 168.899 302.848 169.655C301.165 170.412 299.746 171.654 298.772 173.223L300.657 165.663L299.641 162.265C299.523 161.867 299.386 161.427 299.24 160.93C297.822 156.196 303.02 150.989 303.02 150.989L309.181 144.471H309.186C309.717 144.442 310.249 144.483 310.769 144.594C310.514 144.85 310.23 145.134 309.913 145.442C309.857 145.494 309.805 145.55 309.758 145.603C307.948 147.453 308.888 147.969 309.734 148.107C310.014 148.15 310.297 148.164 310.58 148.149C312.55 148.433 316.864 146.701 320.03 145.252C322.184 144.268 323.81 143.416 323.81 143.416L327.935 139.629L328.553 139.061C329.12 139.435 329.48 139.629 329.48 139.629H329.952C329.952 139.629 330.014 139.619 330.122 139.61L327.971 141.209C326.9 142.006 326.044 143.058 325.482 144.27C324.921 145.482 324.671 146.815 324.755 148.149L331.133 160.693Z" fill="#D0CDE1"/>
<path d="M305.382 174.184L298.475 176.886C298.475 176.886 260.968 162.35 255.298 174.184C249.628 186.017 275.143 214.419 275.143 214.419L286.483 209.212L281.758 195.011C281.758 195.011 309.162 218.206 320.502 205.425C331.842 192.644 324.282 174.573 324.282 174.573C324.282 174.573 317.195 168.977 305.382 174.184Z" fill="#2F2E41"/>
<path d="M285.537 225.779L281.285 229.093C281.285 229.093 285.065 244.24 283.647 246.607C282.23 248.973 279.395 255.6 284.592 255.127C289.79 254.654 295.46 246.607 295.932 243.767C296.405 240.927 299.712 232.406 299.712 232.406C299.712 232.406 305.382 219.152 301.13 218.679C296.877 218.206 290.104 217.889 290.104 217.889L285.537 225.779Z" fill="#2F2E41"/>
<path d="M321.542 112.168C320.721 111.063 319.656 110.162 318.431 109.536C317.206 108.91 315.854 108.575 314.479 108.557H314.144C307.683 108.557 302.445 114.414 302.445 121.639V121.639H304.61L304.959 118.973L305.472 121.639H318.312L319.388 119.384L319.119 121.639H321.645C322.824 127.504 321.13 133.368 316.564 139.233H320.867L323.019 134.721L322.481 139.233H330.683L332.297 128.857C332.297 121.087 327.79 114.497 321.542 112.168Z" fill="#2F2E41"/>
<path d="M244.069 20.2488V0H236.935V20.2488H131.911V0H124.777V20.2488H81.1821V130.625H287.664V20.2488H244.069ZM128.344 46.0561C125.714 46.0562 123.17 45.1206 121.165 43.4162C119.16 41.7118 117.824 39.3494 117.395 36.7502C116.967 34.1509 117.474 31.4837 118.826 29.224C120.178 26.9644 122.287 25.2592 124.777 24.4124V40.4976H131.911V24.4124C134.401 25.2592 136.51 26.9644 137.862 29.224C139.214 31.4837 139.721 34.1509 139.293 36.7502C138.864 39.3494 137.528 41.7118 135.523 43.4162C133.518 45.1206 130.974 46.0561 128.344 46.0561L128.344 46.0561ZM240.502 46.0561C237.872 46.0562 235.328 45.1206 233.323 43.4162C231.317 41.7119 229.982 39.3494 229.553 36.7502C229.125 34.1509 229.632 31.4837 230.984 29.224C232.336 26.9644 234.445 25.2592 236.935 24.4124V40.4976H244.069V24.4124C246.559 25.2592 248.668 26.9644 250.02 29.224C251.372 31.4837 251.879 34.1509 251.451 36.7502C251.022 39.3494 249.686 41.7118 247.681 43.4162C245.676 45.1206 243.132 46.0561 240.502 46.0561V46.0561Z" fill="#3F3D56"/>
<path d="M126.759 57.3716H91.0903V84.3701H126.759V57.3716Z" fill="#D0CDE1"/>
<path d="M177.091 57.3716H141.422V84.3701H177.091V57.3716Z" fill="#D0CDE1"/>
<path d="M227.423 57.3716H191.755V84.3701H227.423V57.3716Z" fill="#D0CDE1"/>
<path d="M277.756 57.3716H242.087V84.3701H277.756V57.3716Z" fill="#D0CDE1"/>
<path d="M126.759 92.3107H91.0903V119.309H126.759V92.3107Z" fill="#D0CDE1"/>
<path d="M177.091 92.3107H141.422V119.309H177.091V92.3107Z" fill="#D0CDE1"/>
<path d="M227.423 92.3107H191.755V119.309H227.423V92.3107Z" fill="#D0CDE1"/>
<path d="M277.756 92.3107H242.087V119.309H277.756V92.3107Z" fill="#D0CDE1"/>
<path d="M209.428 76.9464L198.279 61.5226L201.316 59.3201L209.85 71.1265L242.506 37.5156L245.192 40.1354L209.428 76.9464Z" fill="#309975"/>
<path d="M158.303 114.268L147.154 98.8439L150.191 96.6413L158.725 108.448L191.381 74.8369L194.067 77.4566L158.303 114.268Z" fill="#309975"/>
<path d="M57.0003 117.121L48.8336 113.892L40.6665 110.664L47.5408 105.193L54.4152 99.7213L55.7079 108.421L57.0003 117.121Z" fill="#F2F2F2"/>
<path d="M107.512 274.078L99.3453 270.849L91.1782 267.62L98.0526 262.149L104.927 256.678L106.22 265.378L107.512 274.078Z" fill="#F2F2F2"/>
<path d="M16.3338 164.723L8.1671 161.494L0 158.266L6.87433 152.794L13.7487 147.323L15.0414 156.023L16.3338 164.723Z" fill="#F2F2F2"/>
<path d="M60.4014 195.066L52.688 199.267L44.9751 203.469L45.1994 194.677L45.4237 185.884L52.9128 190.475L60.4014 195.066Z" fill="#F2F2F2"/>
<path d="M149.011 239.666L141.298 243.867L133.585 248.069L133.809 239.276L134.034 230.483L141.523 235.074L149.011 239.666Z" fill="#F2F2F2"/>
</svg>
