<svg width="398" height="291" viewBox="0 0 398 291" fill="none" xmlns="http://www.w3.org/2000/svg">
<g clip-path="url(#clip0)">
<path d="M222.152 286.393C301.246 286.393 365.364 222.282 365.364 143.196C365.364 64.1112 301.246 0 222.152 0C143.059 0 78.9409 64.1112 78.9409 143.196C78.9409 222.282 143.059 286.393 222.152 286.393Z" fill="#F2F2F2"/>
<path d="M265.923 89.4502C286.491 89.4502 303.165 72.7779 303.165 52.2115C303.165 31.6451 286.491 14.9728 265.923 14.9728C245.354 14.9728 228.68 31.6451 228.68 52.2115C228.68 72.7779 245.354 89.4502 265.923 89.4502Z" fill="#FF6584"/>
<path d="M109.794 27.8267L110.812 49.0476C115.032 54.6753 119.584 61.1152 124.077 68.1339L124.719 35.7592L125.073 35.9854C119.875 32.2732 114.592 29.4329 109.44 27.63L109.794 27.8267Z" fill="#309975"/>
<path d="M110.07 48.0617L109.085 27.5057C103.298 25.5324 97.6833 24.8778 92.5511 25.7929C92.2841 25.8406 92.0217 25.8954 91.7598 25.951C93.0638 27.3498 100.663 35.6112 110.07 48.0617Z" fill="#309975"/>
<path d="M156.794 73.3791L157.135 73.705C155.733 71.0675 154.246 68.5033 152.675 66.0122L143.106 103.663L142.944 103.52C143.636 105.172 144.294 106.812 144.918 108.441L156.794 73.3791Z" fill="#309975"/>
<path d="M142.215 51.9741L142.568 52.2561C137.508 46.2621 131.756 40.8883 125.433 36.2471L124.779 69.2386C128.96 75.8361 132.703 82.3346 136.009 88.734L142.215 51.9741Z" fill="#309975"/>
<path d="M72.7969 62.2742C73.3345 67.8349 74.4327 73.3272 76.0746 78.6672L133.141 84.5527C130.162 79.0596 127.086 73.906 124.101 69.209L72.942 62.7228L72.7969 62.2742Z" fill="#309975"/>
<path d="M78.1504 84.8251L77.9967 84.3773L135.753 89.5106C135.055 88.1459 134.35 86.7994 133.636 85.4709L76.3595 79.5637L76.209 79.1152C76.7863 80.9975 77.4334 82.9008 78.1504 84.8251Z" fill="#309975"/>
<path d="M152.025 65.2272L152.372 65.5333C149.509 61.0302 146.345 56.7254 142.901 52.6483L136.611 89.9053C138.791 94.1851 140.766 98.4046 142.535 102.564L152.025 65.2272Z" fill="#309975"/>
<path d="M150.804 127.463C153.099 137.395 153.969 146.786 153.395 155.532C156.624 148.651 168.907 120.145 164.316 93.5776L150.804 127.463Z" fill="#309975"/>
<path d="M88.7456 104.905C91.8017 109.021 95.1301 112.927 98.7087 116.598L98.5693 116.101L149.945 126.669C148.609 121.123 146.941 115.662 144.95 110.316L88.7456 104.905Z" fill="#309975"/>
<path d="M109.627 48.4084C99.4456 34.9404 91.4119 26.428 91.2963 26.3062L91.4287 26.0225C83.7024 27.7763 78.2472 33.0326 75.2456 40.6405L109.627 48.4084Z" fill="#309975"/>
<path d="M145.393 109.705C145.583 110.212 145.776 110.719 145.959 111.224C147.723 116.057 149.223 120.983 150.452 125.979L163.836 92.4144L164.163 92.7423C163.316 88.0718 161.88 83.5274 159.89 79.2178C159.101 77.528 158.274 75.8637 157.411 74.2249L145.393 109.705Z" fill="#309975"/>
<path d="M123.503 68.2732C119.056 61.3374 114.555 54.9748 110.384 49.4134L75.2132 41.467L75.0939 41.0232C72.8983 46.8046 72.0955 53.9071 72.7605 61.8398L123.503 68.2732Z" fill="#309975"/>
<path d="M150.153 127.551L99.1533 117.06C120.605 139.078 150.617 155.965 152.533 157.032C153.426 147.331 152.413 137.367 150.153 127.551Z" fill="#309975"/>
<path d="M144.589 109.412L144.6 109.379C142.148 102.914 139.35 96.5868 136.217 90.4235L78.3184 85.2776C79.3014 87.8803 80.4123 90.511 81.6512 93.1695C83.4557 96.957 85.602 100.572 88.0633 103.97L144.589 109.412Z" fill="#309975"/>
<path d="M218.238 99.3047L205.486 116.298C205.146 123.324 204.544 131.187 203.528 139.458L224.673 114.933L224.801 115.332C223.167 109.159 220.909 103.602 218.091 98.9275L218.238 99.3047Z" fill="#309975"/>
<path d="M205.543 115.065L217.896 98.6046C214.698 93.3944 210.792 89.3095 206.255 86.7414C206.019 86.6078 205.782 86.4826 205.545 86.3584C205.657 88.2674 206.24 99.4767 205.543 115.065Z" fill="#309975"/>
<path d="M225.379 164.362L225.435 164.831C226.037 161.906 226.528 158.982 226.907 156.062L195.52 178.957L195.486 178.744C194.965 180.457 194.426 182.14 193.867 183.793L225.379 164.362Z" fill="#309975"/>
<path d="M227.806 138.579L227.897 139.021C227.824 131.178 226.822 123.371 224.912 115.764L203.364 140.756C202.375 148.504 201.113 155.896 199.577 162.933L227.806 138.579Z" fill="#309975"/>
<path d="M167.77 102.241C164.637 106.866 161.979 111.797 159.837 116.957L200.035 157.884C201.245 151.753 202.163 145.822 202.86 140.301L167.595 102.679L167.77 102.241Z" fill="#309975"/>
<path d="M157.508 123.024L157.676 122.581L198.884 163.368C199.218 161.872 199.533 160.385 199.831 158.907L159.485 117.829L159.655 117.388C158.899 119.206 158.184 121.084 157.508 123.024Z" fill="#309975"/>
<path d="M226.907 155.043L226.979 155.5C227.646 150.206 227.955 144.872 227.904 139.536L199.294 164.22C198.243 168.906 197.072 173.415 195.782 177.747L226.907 155.043Z" fill="#309975"/>
<path d="M186.267 202.197C181.699 211.311 176.379 219.098 170.358 225.468C177.235 222.228 204.879 208.106 218.289 184.716L186.267 202.197Z" fill="#309975"/>
<path d="M152.86 145.245C152.588 150.365 152.66 155.496 153.074 160.606L153.284 160.134L186.112 201.038C188.621 195.914 190.819 190.645 192.696 185.258L152.86 145.245Z" fill="#309975"/>
<path d="M204.981 115.05C205.73 98.1835 204.973 86.5039 204.961 86.3363L205.244 86.2022C198.175 82.6256 190.62 83.1949 183.456 87.1402L204.981 115.05Z" fill="#309975"/>
<path d="M193.427 185.07C193.25 185.581 193.075 186.095 192.894 186.6C191.17 191.448 189.184 196.198 186.943 200.83L218.661 183.515L218.704 183.976C221.031 179.838 222.824 175.422 224.04 170.834C224.51 169.029 224.935 167.22 225.315 165.407L193.427 185.07Z" fill="#309975"/>
<path d="M202.997 139.199C203.996 131.021 204.588 123.25 204.922 116.306L182.903 87.7562L183.095 87.3384C177.716 90.3909 172.567 95.3492 168.019 101.883L202.997 139.199Z" fill="#309975"/>
<path d="M185.71 201.85L153.123 161.245C155.599 191.884 167.942 224.03 168.737 226.074C175.613 219.172 181.189 210.851 185.71 201.85Z" fill="#309975"/>
<path d="M192.995 184.331L193.025 184.313C195.26 177.77 197.141 171.112 198.659 164.367L157.349 123.479C156.446 126.111 155.623 128.845 154.882 131.683C153.856 135.751 153.203 139.904 152.931 144.09L192.995 184.331Z" fill="#309975"/>
<path d="M91.0864 121.992L98.6146 141.86C104.367 145.907 110.688 150.625 117.13 155.911L107.732 124.924L108.139 125.03C102.049 123.105 96.1464 122.037 90.689 121.915L91.0864 121.992Z" fill="#309975"/>
<path d="M97.6046 141.151L90.3124 121.907C84.1992 121.818 78.6572 122.931 74.0592 125.388C73.82 125.515 73.5874 125.649 73.3555 125.782C75.0281 126.71 84.809 132.218 97.6046 141.151Z" fill="#309975"/>
<path d="M149.866 150.788L150.292 150.993C148.143 148.918 145.936 146.939 143.672 145.055L146.21 183.819L146.012 183.734C147.181 185.091 148.313 186.447 149.411 187.804L149.866 150.788Z" fill="#309975"/>
<path d="M129.385 134.937L129.807 135.096C123.142 130.96 116.011 127.627 108.562 125.167L118.139 156.745C124.155 161.727 129.724 166.751 134.846 171.815L129.385 134.937Z" fill="#309975"/>
<path d="M66.5493 166.188C68.7796 171.31 71.5218 176.194 74.7341 180.765L130.825 168.725C126.294 164.422 121.776 160.471 117.485 156.927L66.826 166.569L66.5493 166.188Z" fill="#309975"/>
<path d="M78.6124 185.98L78.3278 185.601L134.843 172.633C133.757 171.551 132.67 170.488 131.581 169.445L75.2828 181.529L75.001 181.149C76.1318 182.761 77.3356 184.371 78.6124 185.98Z" fill="#309975"/>
<path d="M142.811 144.509L143.236 144.693C139.12 141.296 134.781 138.18 130.246 135.366L135.781 172.743C139.177 176.139 142.359 179.542 145.328 182.951L142.811 144.509Z" fill="#309975"/>
<path d="M160.889 204.075C166.142 212.811 169.872 221.474 172.03 229.969C172.974 222.426 175.843 191.52 163.264 167.673L160.889 204.075Z" fill="#309975"/>
<path d="M94.8955 201.801C99.0743 204.771 103.448 207.458 107.986 209.843L107.699 209.413L159.826 203.585C156.841 198.724 153.566 194.046 150.021 189.577L94.8955 201.801Z" fill="#309975"/>
<path d="M97.2901 141.618C83.4437 131.956 73.172 126.344 73.0245 126.264L73.0626 125.953C66.2568 130.009 62.6936 136.693 62.1909 144.857L97.2901 141.618Z" fill="#309975"/>
<path d="M150.253 188.859C150.59 189.282 150.93 189.705 151.261 190.128C154.433 194.179 157.382 198.4 160.095 202.772L162.448 166.715L162.86 166.926C160.611 162.746 157.84 158.868 154.616 155.384C153.342 154.021 152.042 152.694 150.714 151.402L150.253 188.859Z" fill="#309975"/>
<path d="M116.627 156.222C110.254 151 104.006 146.34 98.3199 142.34L62.4153 145.653L62.1647 145.267C61.8638 151.444 63.2959 158.447 66.3806 165.786L116.627 156.222Z" fill="#309975"/>
<path d="M160.297 204.359L108.551 210.144C135.759 224.455 169.522 231.239 171.673 231.662C169.524 222.16 165.48 212.996 160.297 204.359Z" fill="#309975"/>
<path d="M149.398 188.829L149.398 188.794C145.068 183.404 140.45 178.251 135.566 173.358L78.9116 186.358C80.6511 188.53 82.5208 190.688 84.5209 192.834C87.4079 195.878 90.5665 198.653 93.9576 201.123L149.398 188.829Z" fill="#309975"/>
<path d="M398 243.396C398 260.57 309.645 291 200.653 291C91.6607 291 3.30518 260.57 3.30518 243.396C3.30518 226.222 91.6607 228.808 200.653 228.808C309.645 228.808 398 226.222 398 243.396Z" fill="#3F3D56"/>
<path opacity="0.1" d="M398 243.396C398 260.57 309.645 291 200.653 291C91.6607 291 3.30518 260.57 3.30518 243.396C3.30518 226.222 91.6607 228.808 200.653 228.808C309.645 228.808 398 226.222 398 243.396Z" fill="black"/>
<path d="M200.653 274.492C309.645 274.492 398 260.57 398 243.396C398 226.222 309.645 212.3 200.653 212.3C91.6607 212.3 3.30518 226.222 3.30518 243.396C3.30518 260.57 91.6607 274.492 200.653 274.492Z" fill="#3F3D56"/>
<path opacity="0.1" d="M234.867 210.894C234.867 229.604 208.784 223.817 176.848 223.817C144.912 223.817 119.216 229.604 119.216 210.894C119.216 192.183 145.296 188.114 177.232 188.114C209.168 188.114 234.867 192.183 234.867 210.894Z" fill="black"/>
<path d="M234.867 206.287C234.867 224.997 208.784 219.21 176.848 219.21C144.912 219.21 119.216 224.997 119.216 206.287C119.216 187.576 145.296 183.507 177.232 183.507C209.168 183.507 234.867 187.576 234.867 206.287Z" fill="#3F3D56"/>
<path d="M132.13 154.803C132.832 154.303 133.608 153.914 134.428 153.65C139.633 151.714 145.086 150.527 150.624 150.125C155.44 149.784 160.659 150.189 164.42 153.216C165.005 153.645 165.484 154.203 165.82 154.846C166.293 155.867 166.15 157.054 165.996 158.169C165.962 158.601 165.853 159.024 165.674 159.419C165.168 160.383 163.922 160.721 162.839 160.605C161.757 160.489 160.741 160.032 159.674 159.819C159.013 159.704 158.345 159.636 157.674 159.616L150.979 159.253C146.815 159.028 142.596 158.806 138.512 159.646C137.255 159.872 136.04 160.291 134.91 160.887C133.977 161.411 133.349 162.163 132.483 161.195C130.963 159.496 130.121 156.373 132.13 154.803Z" fill="#2F2E41"/>
<path d="M142.506 157.764C142.506 157.764 151.512 153.727 154.928 158.385C158.344 163.043 153.065 161.179 153.065 161.179L147.164 163.043L140.643 161.801L142.506 157.764Z" fill="#F2F2F2"/>
<path d="M142.972 154.814C142.972 154.814 144.214 160.714 143.282 162.266C142.351 163.819 148.562 165.993 148.562 165.993L154.462 163.508C154.462 163.508 152.91 153.882 154.462 152.019L142.972 154.814Z" fill="#FFB9B9"/>
<path opacity="0.1" d="M142.972 154.814C142.972 154.814 144.214 160.714 143.282 162.266C142.351 163.819 148.562 165.993 148.562 165.993L154.462 163.508C154.462 163.508 152.91 153.882 154.462 152.019L142.972 154.814Z" fill="black"/>
<path d="M137.152 225.757C137.987 227.488 138.674 229.287 139.204 231.135C139.213 231.196 139.235 231.254 139.268 231.306C139.3 231.358 139.344 231.403 139.395 231.437C139.447 231.471 139.505 231.494 139.565 231.504C139.626 231.515 139.688 231.512 139.748 231.496L145.272 231.49C145.954 231.489 146.868 231.27 146.861 230.589C146.856 230.11 146.367 229.811 146.002 229.5C144.991 228.638 144.728 227.215 144.309 225.954C143.495 223.524 141.926 221.417 139.831 219.94C139.548 219.719 139.222 219.558 138.874 219.467C138.524 219.416 138.167 219.436 137.825 219.524C136.855 219.72 133.234 220.389 133.918 221.799C134.212 222.407 135.304 223.039 135.762 223.606C136.295 224.275 136.761 224.996 137.152 225.757Z" fill="#575A89"/>
<path d="M156.361 219.351C156.167 219.76 155.95 220.159 155.712 220.545C154.912 221.864 153.967 223.096 153.222 224.447C152.72 225.273 152.409 226.201 152.314 227.163C152.272 227.644 152.345 228.128 152.529 228.574C152.712 229.021 153 229.417 153.369 229.729C154.171 230.338 155.27 230.366 156.267 230.224C157.263 230.082 158.254 229.797 159.258 229.872C158.919 227.957 160.535 226.272 160.939 224.369C161.052 223.835 161.069 223.281 161.221 222.756C161.385 222.277 161.594 221.814 161.846 221.374C162.65 219.808 163.219 218.131 163.533 216.399C163.571 216.189 158.623 216.155 158.159 216.255C156.71 216.568 156.922 218.15 156.361 219.351Z" fill="#575A89"/>
<path d="M118.221 189.266C116.809 191.476 117.134 194.406 118.126 196.834C119.119 199.262 120.698 201.409 121.778 203.799C122.467 205.323 122.951 206.939 123.727 208.42C124.687 210.255 126.09 211.872 126.735 213.84C127.146 215.094 127.24 216.469 127.906 217.609C128.308 218.218 128.767 218.788 129.277 219.311C130.711 220.953 131.788 222.876 132.439 224.957C133.047 223.145 134.869 221.956 136.741 221.564C138.612 221.172 140.551 221.439 142.444 221.706C141.388 220.07 140.322 218.414 139.692 216.571C139.083 214.789 138.904 212.893 138.494 211.055C137.653 207.287 135.856 203.81 134.077 200.383L143.219 199.658C144.711 199.508 146.212 199.452 147.711 199.491C150.07 199.602 152.382 200.181 154.729 200.448C157.076 200.715 159.559 200.645 161.651 199.547C157.651 205.286 155.568 212.141 155.7 219.134C156.593 218.441 157.631 217.958 158.736 217.718C159.841 217.478 160.986 217.488 162.087 217.748C163.187 218.008 164.216 218.51 165.097 219.219C165.979 219.927 166.69 220.824 167.18 221.843C170.763 216.948 170.337 210.133 173.176 204.772C173.759 203.67 174.475 202.643 175.105 201.566C176.295 199.404 177.314 197.152 178.153 194.831C178.947 192.8 179.747 190.54 178.985 188.497C178.669 187.722 178.209 187.014 177.628 186.41C175.99 184.605 173.711 183.269 171.273 183.213C167.531 183.128 164.441 185.901 161.158 187.7C157.24 189.782 152.808 190.701 148.385 190.348C143.876 190.029 139.571 188.553 135.275 187.254C133.127 186.574 130.943 186.01 128.733 185.566C126.891 185.221 125.137 185.604 123.321 186.075C121.345 186.587 119.359 187.486 118.221 189.266Z" fill="#2F2E41"/>
<path d="M157.257 148.914C157.255 151.384 156.273 153.752 154.526 155.499C152.779 157.245 150.411 158.227 147.941 158.229C147.385 158.23 146.831 158.18 146.285 158.08C144.542 157.765 142.924 156.96 141.622 155.758C140.32 154.557 139.388 153.009 138.935 151.296C138.481 149.584 138.526 147.777 139.063 146.089C139.6 144.401 140.608 142.901 141.967 141.765C143.327 140.629 144.982 139.904 146.739 139.676C148.496 139.447 150.282 139.724 151.887 140.475C153.492 141.225 154.85 142.418 155.801 143.912C156.752 145.407 157.257 147.142 157.257 148.914Z" fill="#FFB9B9"/>
<path d="M142.506 157.764C142.506 157.764 144.214 158.54 144.835 159.161C145.456 159.782 147.319 163.198 150.425 161.024C153.531 158.851 153.841 157.608 154.773 157.608C155.704 157.608 156.947 159.472 156.947 159.472L165.487 185.09C163.185 187.688 160.518 189.937 157.568 191.766C152.599 194.872 146.698 196.424 143.903 195.182C141.108 193.94 135.829 193.008 134.897 190.524C133.965 188.04 132.413 180.587 132.413 180.587L136.76 161.645L142.506 157.764Z" fill="#F2F2F2"/>
<path d="M141.307 183.673C141.984 182.211 142.082 180.556 142.139 178.945C142.231 177.35 142.188 175.751 142.013 174.163C141.738 172.085 141.061 170.084 140.634 168.033C140.26 166.234 140.078 164.4 140.091 162.562C140.097 161.724 140.158 160.841 140.615 160.138C140.934 159.647 141.432 159.268 141.632 158.718C142.022 157.639 141.057 156.51 139.999 156.066C138.711 155.583 137.302 155.526 135.979 155.904C134.667 156.283 133.399 156.802 132.198 157.451C131.289 157.839 130.453 158.379 129.727 159.048C128.763 160.046 128.339 161.435 127.997 162.779C127.723 163.855 127.479 164.977 127.688 166.067C128.026 167.838 129.47 169.17 130.24 170.8C131.133 172.693 131.073 174.9 130.718 176.963C130.362 179.026 129.731 181.043 129.536 183.128C129.342 185.212 129.641 187.453 130.947 189.089C131.479 189.756 132.923 191.336 133.897 191.157C134.662 191.017 135.772 189.332 136.389 188.798C138.17 187.255 140.284 185.883 141.307 183.673Z" fill="#2F2E41"/>
<path d="M157.578 156.751C157.605 158.483 156.842 160.129 155.944 161.61C155.046 163.092 153.991 164.493 153.33 166.093C152.507 168.097 152.339 170.31 152.85 172.415C153.04 173.132 153.268 173.838 153.535 174.53L155.237 179.197C155.466 179.93 155.798 180.628 156.223 181.268C156.608 181.758 157.059 182.192 157.564 182.558C158.857 183.601 160.344 184.377 161.94 184.84C163.546 185.3 165.261 185.202 166.805 184.563C166.969 178.236 167.985 171.961 169.827 165.906C170.167 164.788 170.539 163.611 170.276 162.473C169.983 161.197 168.958 160.24 167.984 159.366C165.006 156.691 161.731 153.882 157.745 153.522C155.437 153.313 157.558 155.499 157.578 156.751Z" fill="#2F2E41"/>
<path d="M137.198 192.854C137.434 193.316 137.581 193.82 137.814 194.284C138.159 194.905 138.585 195.478 139.082 195.987C141.158 198.29 143.696 200.583 146.794 200.722C147.101 200.751 147.412 200.712 147.703 200.607C147.965 200.473 148.19 200.277 148.358 200.036C148.527 199.795 148.634 199.516 148.67 199.225C148.89 198.022 148.359 196.822 147.827 195.721C146.675 193.335 145.379 190.889 143.222 189.35C142.145 188.612 140.914 188.128 139.623 187.933C138.332 187.739 137.013 187.84 135.767 188.229C134.643 188.575 132.78 189.179 134.268 190.204C135.396 190.982 136.543 191.574 137.198 192.854Z" fill="#FFB9B9"/>
<path d="M150.587 162.478C150.263 161.605 149.768 160.806 149.129 160.128C148.485 159.584 147.723 159.198 146.903 159.001C145.841 158.697 144.742 158.54 143.637 158.532C142.322 158.524 140.797 158.877 140.238 160.068C139.795 161.013 140.139 162.133 140.585 163.077C140.776 163.566 141.094 163.995 141.506 164.321C142.073 164.704 142.807 164.692 143.479 164.82C144.521 165.085 145.509 165.532 146.395 166.141L148.699 167.534L152.656 169.925C152.551 169.862 152.588 167.149 152.467 166.704C152.075 165.272 151.194 163.834 150.587 162.478Z" fill="#FFB9B9"/>
<path d="M139.061 230.432C138.135 231.69 138.321 233.488 137.501 234.817C136.79 235.97 135.45 236.574 134.561 237.595C134.277 237.934 134.024 238.298 133.805 238.682C132.98 240.064 132.309 241.834 133.122 243.223C133.775 244.341 135.149 244.777 136.409 245.075C138.001 245.451 139.656 245.752 141.266 245.465C142.877 245.177 144.451 244.191 145.025 242.659C145.138 242.274 145.272 241.895 145.427 241.525C146.3 239.806 149.039 239.788 149.932 238.08C150.557 236.885 149.983 235.44 149.408 234.219L147.653 230.492C147.071 229.255 144.71 229.966 143.48 229.67C141.875 229.283 140.216 228.857 139.061 230.432Z" fill="#2F2E41"/>
<path d="M152.633 227.229C151.914 227.795 151.365 228.548 151.045 229.404C150.177 231.408 149.879 233.604 149.589 235.768C149.424 236.629 149.407 237.511 149.539 238.378C149.913 240.145 151.515 241.447 153.239 241.987C154.963 242.528 156.812 242.445 158.617 242.356C159.199 242.371 159.777 242.254 160.307 242.013C161.214 241.513 161.568 240.337 161.413 239.313C161.257 238.29 160.698 237.379 160.15 236.5C159.603 235.621 159.043 234.71 158.886 233.687C158.622 231.965 159.367 229.437 158.309 227.88C157.249 226.318 154.048 226.238 152.633 227.229Z" fill="#2F2E41"/>
<path d="M157.023 144.059C156.858 143.502 156.492 143.025 155.998 142.72C156.023 142.123 155.95 141.526 155.781 140.953C155.217 139.286 153.88 139.381 152.619 138.644C152.072 138.324 152.106 138.041 151.821 137.516C151.448 136.827 150.889 136.256 150.207 135.869C149.398 135.354 148.544 134.823 147.587 134.758C145.576 134.621 144.033 136.513 142.111 137.12C141.263 137.387 140.353 137.398 139.501 137.651C138.649 137.904 137.799 138.508 137.672 139.388C137.614 139.794 137.717 140.21 137.658 140.616C137.539 141.423 136.832 141.988 136.358 142.652C135.31 144.119 135.43 146.192 136.268 147.788C136.444 148.119 136.646 148.435 136.872 148.734C136.942 149.488 137.159 150.222 137.51 150.894C138.348 152.49 139.79 153.683 141.296 154.674C141.173 154.145 141.098 153.605 141.073 153.062C141.051 152.881 141.075 152.698 141.141 152.528C141.309 152.177 141.752 152.084 142.09 151.892C142.79 151.494 143.065 150.614 143.085 149.809C143.105 149.004 142.935 148.198 143.019 147.398C143.022 147.214 143.064 147.032 143.142 146.865C143.22 146.698 143.331 146.55 143.47 146.428C143.729 146.281 144.024 146.211 144.321 146.226C145.755 146.167 147.254 146.141 148.519 145.463C148.927 145.192 149.365 144.97 149.825 144.802C150.9 144.521 151.999 145.275 152.619 146.197C153.238 147.119 153.547 148.217 154.119 149.169C154.691 150.122 155.678 150.971 156.784 150.859C156.846 150.859 156.908 150.846 156.964 150.82C157.021 150.795 157.072 150.758 157.114 150.712C157.161 150.626 157.183 150.528 157.175 150.431L157.236 146.206C157.288 145.483 157.216 144.757 157.023 144.059Z" fill="#2F2E41"/>
<path d="M127.538 166.157C126.649 167.469 125.624 168.729 125.136 170.236C124.849 171.122 124.759 172.058 124.551 172.966C123.859 175.989 121.858 178.674 121.657 181.769C121.587 182.456 121.688 183.151 121.951 183.79C122.525 185.038 123.899 185.696 125.209 186.11C126.519 186.524 127.926 186.822 128.972 187.713C129.498 188.218 129.976 188.771 130.398 189.366C132.104 191.488 134.399 193.058 136.996 193.88C136.791 192.467 136.694 190.764 137.824 189.89C138.435 189.418 139.252 189.333 140.022 189.267L143.661 188.952C141.235 186.599 138.56 184.516 135.685 182.739C134.678 182.118 133.583 181.462 133.124 180.372C132.887 179.67 132.788 178.929 132.834 178.189C132.809 175.483 132.58 172.783 132.148 170.111C131.849 168.256 131.452 166.418 130.998 164.595C130.871 164.083 130.118 161.787 129.192 162.324C128.974 162.45 128.769 163.907 128.642 164.209C128.339 164.893 127.969 165.546 127.538 166.157Z" fill="#2F2E41"/>
<path d="M169.448 161.202L170.934 164.292C171.65 165.563 171.976 167.016 171.871 168.471L171.959 177.74C172.028 178.978 171.925 180.22 171.655 181.431C171.562 181.83 171.387 182.205 171.142 182.533C170.89 182.816 170.593 183.055 170.263 183.241C167.451 184.998 163.804 185.997 160.833 184.524C160.152 184.162 159.505 183.739 158.899 183.262C157.715 182.385 156.514 181.491 155.628 180.314C154.7 179.082 154.169 177.607 153.545 176.196C152.426 173.666 150.979 171.294 149.243 169.14C148.955 168.856 148.768 168.485 148.71 168.084C148.692 167.272 149.656 166.872 150.408 166.563C151.692 166.035 152.903 165.016 153.118 163.644C155.849 167.225 158.862 171.008 163.171 172.316C163.239 172.36 163.317 172.384 163.397 172.386C163.477 172.389 163.556 172.369 163.626 172.33C163.697 172.291 163.755 172.234 163.795 172.165C163.835 172.096 163.856 172.017 163.855 171.936C164.1 170.913 164.186 169.859 164.365 168.822C164.693 166.934 165.325 165.112 166.237 163.426C166.747 162.481 168.4 159.021 169.448 161.202Z" fill="#2F2E41"/>
<path opacity="0.1" d="M132.574 170.138C132.615 172.332 132.149 174.505 131.212 176.489C130.969 176.927 130.789 177.399 130.679 177.888C130.516 178.932 131.11 179.943 131.789 180.752C133.129 182.344 134.867 183.553 136.826 184.255" fill="black"/>
<path opacity="0.1" d="M164.841 168.289C164.622 168.878 164.821 169.529 164.99 170.134C165.479 171.889 165.707 173.706 165.668 175.528C165.675 175.559 165.674 175.593 165.665 175.624C165.656 175.655 165.639 175.684 165.616 175.707C165.594 175.731 165.565 175.748 165.534 175.758C165.503 175.767 165.47 175.769 165.438 175.763C164.721 175.807 163.9 175.811 163.414 175.283" fill="black"/>
<path opacity="0.1" d="M286.656 256.065C313.374 256.065 335.033 251.424 335.033 245.699C335.033 239.975 313.374 235.334 286.656 235.334C259.938 235.334 238.279 239.975 238.279 245.699C238.279 251.424 259.938 256.065 286.656 256.065Z" fill="black"/>
<path d="M310.845 153.178L307.389 156.633L310.845 160.089L314.3 153.178H310.845Z" fill="#A0616A"/>
<path d="M311.622 123.218C312.592 123.615 313.053 124.7 313.419 125.682L317.901 137.725L318.774 140.07C319.202 141.219 319.63 142.37 319.992 143.542C320.221 144.283 320.423 145.032 320.598 145.789C320.78 146.436 320.849 147.11 320.804 147.781C320.683 148.519 320.414 149.225 320.012 149.856C318.453 152.572 316.232 154.849 313.556 156.477C313.402 155.481 313 154.54 312.388 153.74C311.776 152.939 310.973 152.305 310.052 151.895L312.37 150.62C312.86 150.39 313.301 150.067 313.669 149.669C313.893 149.359 314.053 149.006 314.138 148.632C314.223 148.259 314.232 147.872 314.165 147.495C314.026 146.742 313.794 146.01 313.477 145.314C312.699 143.373 312.024 141.393 311.455 139.381C311.118 138.191 310.809 136.968 310.142 135.927C309.537 134.982 308.66 134.227 308.11 133.249C307.272 131.758 307.294 129.923 307.664 128.254C307.976 126.845 308.5 125.488 308.941 124.116C309.287 123.038 310.584 122.793 311.622 123.218Z" fill="#D0CDE1"/>
<path d="M290.251 91.0408C288.469 91.6426 286.854 93.0504 286.489 94.8957C286.32 95.7511 286.423 96.6403 286.281 97.5006C285.951 99.4957 284.384 101.019 282.94 102.435C281.495 103.85 280.003 105.495 279.898 107.514C279.783 109.725 281.386 111.797 281.109 113.994C280.786 116.547 278.09 118.201 277.424 120.685C276.979 122.345 277.524 124.132 278.421 125.597C280.131 128.389 283.054 130.284 286.166 131.3C289.278 132.316 292.593 132.53 295.867 132.564C299.853 132.606 304.181 132.264 307.176 129.633C308.887 128.117 309.962 126.011 310.184 123.736C310.469 120.688 309.197 117.54 310.074 114.608C310.626 112.763 312.011 111.077 311.804 109.162C311.602 107.29 309.967 105.963 308.845 104.45C307.797 103.038 307.162 101.37 306.539 99.7261L304.407 94.1001C303.988 92.9941 303.528 91.8309 302.594 91.1051C300.846 89.7462 298.035 90.0132 295.99 90.2934C294.094 90.5534 292.075 90.4249 290.251 91.0408Z" fill="#2F2E41"/>
<path d="M291.9 109.581C291.9 109.581 292.109 115.84 291.483 116.466C290.857 117.092 293.987 121.264 293.987 121.264L299.62 121.056L302.541 118.761L300.037 115.423C300.037 115.423 298.994 109.999 299.829 108.747C300.663 107.495 291.9 109.581 291.9 109.581Z" fill="#A0616A"/>
<path opacity="0.1" d="M291.9 109.581C291.9 109.581 292.109 115.84 291.483 116.466C290.857 117.092 293.987 121.264 293.987 121.264L299.62 121.056L302.541 118.761L300.037 115.423C300.037 115.423 298.994 109.999 299.829 108.747C300.663 107.495 291.9 109.581 291.9 109.581Z" fill="black"/>
<path d="M278.86 157.877L282.407 165.804L285.12 162.466L279.695 155.373L278.86 157.877Z" fill="#A0616A"/>
<path d="M269.367 237.256L267.907 245.393L265.403 248.939L266.863 249.774L269.367 249.356L272.288 248.313L273.54 243.515L275.835 237.256H269.367Z" fill="#A0616A"/>
<path d="M296.073 232.249L295.238 243.932L297.325 245.601L300.663 242.68V234.127L296.073 232.249Z" fill="#A0616A"/>
<path d="M295.343 111.981C299.491 111.981 302.854 108.618 302.854 104.47C302.854 100.323 299.491 96.9601 295.343 96.9601C291.195 96.9601 287.832 100.323 287.832 104.47C287.832 108.618 291.195 111.981 295.343 111.981Z" fill="#A0616A"/>
<path d="M301.139 114.572C300.914 114.463 300.668 114.405 300.418 114.4C300.169 114.395 299.921 114.444 299.692 114.544C299.236 114.746 298.794 114.976 298.367 115.234C297.271 115.804 296.028 116.03 294.801 115.883C294.657 115.872 294.516 115.835 294.385 115.775C294.245 115.689 294.117 115.585 294.003 115.467C293.558 115.106 292.99 114.931 292.419 114.981C291.848 115.03 291.319 115.299 290.942 115.731C290.722 116.006 290.571 116.334 290.33 116.591C289.706 117.258 288.677 117.285 287.765 117.283C285.872 117.231 283.98 117.404 282.129 117.8C280.269 118.201 278.556 119.109 277.18 120.422C276.804 120.775 276.505 121.202 276.3 121.675C276.049 122.325 276.082 123.054 275.855 123.712C275.603 124.445 275.045 125.047 274.819 125.789C274.649 126.347 274.673 126.969 274.388 127.479C275.607 128.534 276.64 129.942 277.86 130.997C278.667 131.695 279.512 132.451 279.816 133.475C279.952 134.106 280.013 134.751 279.996 135.397C280.147 138.482 281.821 141.282 283.693 143.74C284.206 144.469 284.82 145.122 285.517 145.678C286.463 146.322 287.537 146.753 288.666 146.942C290.797 147.378 292.991 147.376 295.167 147.354C297.415 147.332 299.703 147.284 301.84 146.586C302.928 146.282 303.906 145.675 304.661 144.834C305.54 143.755 305.883 142.193 307.082 141.486C307.373 141.353 307.648 141.189 307.902 140.996C308.147 140.731 308.32 140.408 308.405 140.058C308.824 138.748 309.056 137.385 309.092 136.009C309.061 135.184 309.117 134.358 309.259 133.544C309.466 132.827 309.768 132.141 310.157 131.504L312.643 126.997C312.845 126.631 312.792 126.092 312.81 125.674C312.792 125.071 312.607 124.486 312.276 123.982C310.664 121.133 308.132 118.917 305.094 117.696C304.855 117.615 304.627 117.503 304.416 117.364C304.168 117.155 303.957 116.904 303.795 116.623C303.136 115.629 302.33 114.51 301.139 114.572Z" fill="#D0CDE1"/>
<path d="M270.164 139.117C269.674 140.309 269.314 141.55 269.09 142.818C268.85 144.571 269.133 146.356 269.903 147.949C271.242 150.706 273.879 152.575 275.74 155.01C277.469 157.273 278.499 159.985 279.996 162.407C279.735 161.79 280.053 161.077 280.48 160.561C280.907 160.045 281.453 159.618 281.767 159.026C281.98 158.568 282.114 158.077 282.163 157.574C282.387 156.072 282.507 154.44 281.742 153.129C281.165 152.142 280.169 151.486 279.381 150.658C278.593 149.816 278.013 148.801 277.689 147.693C277.365 146.586 277.306 145.419 277.517 144.284C277.668 143.503 277.947 142.754 278.156 141.986C278.415 140.955 278.611 139.909 278.743 138.854L279.683 132.401C279.932 130.685 280.144 128.786 279.172 127.349C278.982 127.049 278.72 126.801 278.409 126.628C278.152 126.51 277.878 126.433 277.598 126.399C276.575 126.232 275.19 125.785 274.691 126.88C274.088 128.202 273.668 129.644 273.164 131.007L270.164 139.117Z" fill="#D0CDE1"/>
<path d="M305.972 142.648C305.972 142.648 293.569 145.047 290.648 145.047H285.432C285.432 145.047 283.555 148.385 283.555 151.723C283.555 155.061 271.245 201.791 271.245 201.791C271.245 201.791 259.561 240.177 272.497 240.386C285.432 240.594 293.569 241.22 293.778 236.839C293.987 232.458 295.238 175.922 295.238 175.922L297.186 204.993C297.709 212.19 297.15 219.424 295.528 226.455C294.594 230.397 294.739 234.718 299.411 235.588C308.383 237.257 319.649 235.796 319.649 232.667C319.649 229.538 313.807 160.067 313.807 160.067C313.807 160.067 310.887 149.845 309.217 149.011C307.548 148.176 305.972 142.648 305.972 142.648Z" fill="#2F2E41"/>
<path d="M267.072 248.522L271.662 246.853L274.792 238.925L278.13 238.508C278.13 238.508 276.252 242.472 275.209 243.098C274.166 243.724 272.497 248.939 272.497 248.939C272.497 248.939 273.331 251.025 269.367 251.86C265.403 252.694 262.482 253.32 262.482 253.32C262.482 253.32 262.065 252.486 263.942 250.399C265.82 248.313 268.013 244.801 268.013 244.801L267.072 248.522Z" fill="#2F2E41"/>
<path d="M295.238 238.925L294.404 245.184C294.404 245.184 296.699 248.522 297.325 248.522C297.951 248.522 301.289 245.601 301.289 245.601C301.289 245.601 301.08 242.472 301.289 241.637C301.498 240.803 301.915 236.839 301.289 236.631C300.663 236.422 300.663 241.28 300.663 241.28L297.951 244.141L295.335 242.573L295.238 238.925Z" fill="#2F2E41"/>
<path d="M295.969 104.47C300.463 104.47 304.106 102.509 304.106 100.089C304.106 97.6698 300.463 95.7084 295.969 95.7084C291.475 95.7084 287.832 97.6698 287.832 100.089C287.832 102.509 291.475 104.47 295.969 104.47Z" fill="#2F2E41"/>
<path d="M0 186.063C0 210.639 15.4194 230.526 34.4747 230.526L0 186.063Z" fill="#3F3D56"/>
<path d="M34.4746 230.526C34.4746 205.674 51.6817 185.563 72.9464 185.563L34.4746 230.526Z" fill="#309975"/>
<path d="M12.4907 188.291C12.4907 211.636 22.3234 230.526 34.4746 230.526L12.4907 188.291Z" fill="#309975"/>
<path d="M34.4746 230.526C34.4746 198.77 54.3633 173.074 78.942 173.074L34.4746 230.526Z" fill="#3F3D56"/>
<path d="M27.2222 230.839C27.2222 230.839 32.1113 230.689 33.5847 229.64C35.0581 228.591 41.1053 227.338 41.4709 229.02C41.8364 230.703 48.8182 237.389 43.2985 237.433C37.7787 237.478 30.4731 236.573 29.0024 235.678C27.5318 234.782 27.2222 230.839 27.2222 230.839Z" fill="#A8A8A8"/>
<path opacity="0.2" d="M43.397 236.847C37.8772 236.892 30.5716 235.988 29.101 235.092C27.981 234.41 27.5347 231.962 27.3854 230.833C27.282 230.837 27.2222 230.839 27.2222 230.839C27.2222 230.839 27.5318 234.782 29.0024 235.678C30.4731 236.573 37.7787 237.478 43.2985 237.433C44.8918 237.42 45.4422 236.853 45.412 236.014C45.1906 236.521 44.5829 236.838 43.397 236.847Z" fill="black"/>
</g>
<defs>
<clipPath id="clip0">
<rect width="398" height="291" fill="white"/>
</clipPath>
</defs>
</svg>
