<svg width="793" height="536" viewBox="0 0 793 536" fill="none" xmlns="http://www.w3.org/2000/svg">
<g clip-path="url(#clip0)">
<path d="M574.778 124.942C575.402 113.012 580.585 101.775 589.255 93.5512C597.926 85.3269 609.424 80.7418 621.378 80.7416C622.796 80.7416 624.197 80.8155 625.583 80.9393C631.034 71.5664 638.85 63.7869 648.251 58.3778C657.652 52.9687 668.308 50.1193 679.156 50.1142C690.003 50.1091 700.662 52.9484 710.068 58.3486C719.474 63.7489 727.298 71.5209 732.758 80.8887C733.927 80.8009 735.104 80.7416 736.296 80.7416C748.25 80.7418 759.748 85.3269 768.419 93.5512C777.09 101.775 782.272 113.012 782.896 124.942" fill="#F2F2F2"/>
<path d="M584.497 121.355C585.122 109.424 590.304 98.1878 598.975 89.9636C607.645 81.7393 619.143 77.1542 631.097 77.154C632.516 77.154 633.916 77.2279 635.302 77.3517C640.753 67.9788 648.57 60.1993 657.97 54.7902C667.371 49.3811 678.028 46.5317 688.875 46.5266C699.723 46.5215 710.382 49.3608 719.787 54.761C729.193 60.1612 737.017 67.9333 742.477 77.3011C743.647 77.2133 744.824 77.154 746.016 77.154C757.969 77.1542 769.468 81.7393 778.138 89.9636C786.809 98.1878 791.991 109.424 792.616 121.355" stroke="#3F3D56" stroke-miterlimit="10"/>
<path d="M54.6521 387.768C58.8492 306.266 126.297 241.473 208.889 241.473C213.583 241.473 218.218 241.717 222.806 242.127C240.848 211.105 266.719 185.357 297.833 167.454C328.948 149.551 364.218 140.12 400.121 140.103C436.024 140.086 471.303 149.483 502.434 167.357C533.566 185.23 559.461 210.954 577.533 241.96C581.403 241.669 585.299 241.473 589.243 241.473C671.835 241.473 739.283 306.266 743.48 387.768" fill="#F2F2F2"/>
<path d="M86.8208 375.894C91.0179 294.392 158.465 229.599 241.058 229.599C245.752 229.599 250.387 229.843 254.974 230.253C273.017 199.231 298.887 173.482 330.002 155.579C361.117 137.676 396.387 128.246 432.29 128.229C468.192 128.212 503.471 137.609 534.603 155.483C565.735 173.356 591.629 199.08 609.701 230.085C613.571 229.795 617.468 229.599 621.412 229.599C704.004 229.599 771.452 294.392 775.649 375.894" stroke="#3F3D56" stroke-miterlimit="10"/>
<path d="M0 106.486C0.845325 90.3426 7.85703 75.1393 19.589 64.0114C31.321 52.8835 46.8785 46.6797 63.0528 46.6794C64.9718 46.6794 66.8667 46.7794 68.7421 46.9469C76.1179 34.2648 86.6939 23.7387 99.4138 16.4199C112.134 9.1011 126.552 5.2457 141.229 5.23876C155.907 5.23183 170.329 9.0736 183.056 16.3804C195.783 23.6872 206.368 34.2033 213.756 46.8784C215.338 46.7596 216.931 46.6794 218.544 46.6794C234.718 46.6797 250.276 52.8835 262.008 64.0114C273.74 75.1393 280.751 90.3426 281.597 106.486" fill="#F2F2F2"/>
<path d="M13.1507 101.631C13.9961 85.4884 21.0078 70.2851 32.7397 59.1572C44.4717 48.0293 60.0292 41.8254 76.2036 41.8251C78.1225 41.8251 80.0174 41.9251 81.8928 42.0926C89.2687 29.4106 99.8446 18.8845 112.565 11.5657C125.284 4.24685 139.703 0.391451 154.38 0.384516C169.057 0.37758 183.48 4.21935 196.206 11.5262C208.933 18.8329 219.519 29.349 226.907 42.0241C228.489 41.9054 230.082 41.8251 231.694 41.8251C247.869 41.8254 263.426 48.0293 275.158 59.1572C286.89 70.2851 293.902 85.4884 294.747 101.631" stroke="#3F3D56" stroke-miterlimit="10"/>
<path d="M316.273 181.231C316.273 181.231 327.046 207.378 310.887 213.53C310.887 213.53 333.971 223.528 339.357 221.22C344.744 218.913 348.591 213.53 348.591 211.992C348.591 210.454 343.205 209.685 343.205 209.685C343.205 209.685 333.202 210.454 340.896 185.076L316.273 181.231Z" fill="#FBBEBE"/>
<path d="M328.585 195.073C339.209 195.073 347.822 186.466 347.822 175.847C347.822 165.229 339.209 156.622 328.585 156.622C317.961 156.622 309.348 165.229 309.348 175.847C309.348 186.466 317.961 195.073 328.585 195.073Z" fill="#FBBEBE"/>
<path d="M315.888 195.458C325.238 195.458 332.817 184.784 332.817 171.618C332.817 158.451 325.238 147.778 315.888 147.778C306.539 147.778 298.96 158.451 298.96 171.618C298.96 184.784 306.539 195.458 315.888 195.458Z" fill="#FF6584"/>
<path d="M303.577 187.767C312.926 187.767 320.505 177.094 320.505 163.927C320.505 150.761 312.926 140.087 303.577 140.087C294.227 140.087 286.648 150.761 286.648 163.927C286.648 177.094 294.227 187.767 303.577 187.767Z" fill="#FF6584"/>
<path d="M286.648 158.544C291.323 158.544 295.113 153.207 295.113 146.624C295.113 140.041 291.323 134.704 286.648 134.704C281.974 134.704 278.184 140.041 278.184 146.624C278.184 153.207 281.974 158.544 286.648 158.544Z" fill="#FF6584"/>
<path d="M347.822 208.916C347.822 208.916 352.438 199.687 369.367 195.073C386.295 190.459 419.383 135.089 419.383 135.089C419.383 135.089 417.844 102.02 425.538 112.017C433.233 122.015 427.077 142.01 427.077 142.01L407.222 176.286C403.517 182.684 398.882 188.496 393.469 193.533C381.193 204.953 359.259 225.066 357.055 225.066C353.977 225.066 347.822 208.916 347.822 208.916Z" fill="#FBBEBE"/>
<path d="M320.89 340.421C320.89 340.421 326.276 405.789 324.737 411.941C323.198 418.093 318.582 430.398 326.276 466.543C333.971 502.687 324.737 500.38 324.737 500.38L349.361 511.147C349.361 511.147 340.896 469.619 342.435 458.083C343.974 446.548 343.205 422.708 347.822 406.558C352.438 390.408 353.208 345.035 353.208 345.035L320.89 340.421Z" fill="#FBBEBE"/>
<path opacity="0.1" d="M320.89 340.421C320.89 340.421 326.276 405.789 324.737 411.941C323.198 418.093 318.582 430.398 326.276 466.543C333.971 502.687 324.737 500.38 324.737 500.38L349.361 511.147C349.361 511.147 340.896 469.619 342.435 458.083C343.974 446.548 343.205 422.708 347.822 406.558C352.438 390.408 353.208 345.035 353.208 345.035L320.89 340.421Z" fill="black"/>
<path d="M348.403 502.826C346.495 504.151 341.594 505.495 332.432 495.766C332.432 495.766 327.046 488.076 322.429 495.766C317.812 503.456 320.89 504.225 323.968 508.07C326.939 511.782 350.705 536.993 360.655 535.97C361.001 535.936 361.342 535.864 361.672 535.756C370.906 532.68 357.825 522.682 357.825 522.682C357.825 522.682 349.249 509.496 349.2 503.269C349.202 503.175 349.179 503.082 349.133 503C349.086 502.919 349.018 502.851 348.936 502.806C348.853 502.76 348.76 502.738 348.666 502.741C348.572 502.745 348.481 502.775 348.403 502.826Z" fill="#3F3D56"/>
<path d="M302.423 332.73C302.423 332.73 289.342 362.723 283.955 378.104C281.127 386.178 272.573 388.742 265.085 389.356C255.826 390.076 246.831 392.785 238.716 397.298C227.946 403.34 213.25 410.196 203.93 408.865C187.771 406.558 200.852 431.936 200.852 431.936C200.852 431.936 224.706 417.324 247.02 415.786C269.335 414.248 293.189 411.941 303.962 398.099C314.734 384.256 340.896 340.421 340.896 340.421L302.423 332.73Z" fill="#FBBEBE"/>
<path d="M201.622 428.091C201.622 428.091 193.927 422.708 200.083 417.324C206.238 411.941 208.547 407.327 208.547 407.327C208.547 407.327 197.774 395.791 193.927 401.944C190.079 408.096 173.151 435.781 176.998 444.241C180.846 452.7 184.693 455.007 189.31 445.779C193.927 436.55 205.571 429.285 205.571 429.285L201.622 428.091Z" fill="#3F3D56"/>
<path d="M344.744 212.761C344.744 212.761 342.186 217.874 318.415 212.951C315.281 212.261 312.007 212.621 309.099 213.977C306.191 215.333 303.811 217.608 302.326 220.451C299.345 226.411 298.96 235.063 309.348 245.83C309.348 245.83 327.815 266.593 318.582 275.053C309.348 283.512 362.442 269.67 362.442 269.67C362.442 269.67 355.516 265.055 361.672 251.213C366.509 240.336 366.12 234.208 362.372 229.469C360.11 226.522 358.571 223.085 357.88 219.435C356.829 214.287 354.233 207.836 347.822 207.378C347.822 207.378 341.082 206.983 340.604 208.719C340.127 210.454 346.283 211.992 344.744 212.761Z" fill="#309975"/>
<path d="M316.61 229.075C316.451 227.99 316.257 226.913 316.121 225.825C315.656 222.113 313.889 213.116 307.779 214.664C300.114 216.606 291.65 235.832 291.65 235.832C291.65 235.832 284.725 257.365 274.722 262.748C264.718 268.132 237.017 295.817 237.017 295.817C237.017 295.817 213.933 301.969 222.397 308.121C230.862 314.274 241.634 304.276 241.634 304.276L268.849 287.956C278.368 282.234 286.553 274.543 292.854 265.4C298.523 257.193 305.623 247.708 310.122 244.575C312.847 242.754 314.892 240.082 315.937 236.977C316.759 234.428 316.989 231.726 316.61 229.075Z" fill="#FBBEBE"/>
<path d="M323.198 273.515C323.198 273.515 287.803 268.901 267.796 292.741C247.79 316.581 233.17 309.659 234.709 313.505C236.248 317.35 310.117 362.723 353.208 357.34C379.441 354.062 393.411 351.07 400.327 349.23C403.295 348.468 405.913 346.713 407.745 344.257C408.771 342.898 410.043 341.744 411.495 340.853C412.241 340.364 412.881 339.729 413.377 338.988C413.872 338.246 414.214 337.413 414.381 336.537C414.548 335.661 414.537 334.76 414.349 333.888C414.161 333.016 413.8 332.191 413.287 331.462C401.083 313.816 367.952 267.071 358.594 265.824C347.052 264.286 323.198 273.515 323.198 273.515Z" fill="#309975"/>
<path d="M328.969 163.927C335.769 163.927 341.281 159.968 341.281 155.083C341.281 150.199 335.769 146.24 328.969 146.24C322.17 146.24 316.658 150.199 316.658 155.083C316.658 159.968 322.17 163.927 328.969 163.927Z" fill="#FF6584"/>
<path d="M574.675 76.2793C575.46 72.2212 576.532 68.2241 577.884 64.3181C579.275 60.5171 581.034 57.2744 582.995 57.2744C587.749 57.2744 566.356 37.0818 566.356 37.0818C566.356 37.0818 565.013 39.5761 562.791 42.9376C561.148 45.4474 559.371 47.8661 557.466 50.1832C554.931 53.3856 551.916 56.1781 548.529 58.4622C539.021 64.4012 574.675 76.2793 574.675 76.2793Z" fill="#A0616A"/>
<path d="M637.616 155.016C637.616 155.016 685.275 185.111 670.59 190.056C655.905 195.001 631.578 159.645 631.578 159.645L637.616 155.016Z" fill="#A0616A"/>
<path d="M573.691 86.659C573.691 86.659 596.516 103.294 603.187 115.948C609.858 128.602 644.539 156.722 644.539 156.722C644.539 156.722 637.379 170.862 633.917 170.009C630.455 169.156 559.085 116.091 551.577 111.794C544.068 107.497 555.512 80.9562 573.691 86.659Z" fill="#309975"/>
<path opacity="0.1" d="M573.691 86.659C573.691 86.659 596.516 103.294 603.187 115.948C609.858 128.602 644.539 156.722 644.539 156.722C644.539 156.722 637.379 170.862 633.917 170.009C630.455 169.156 559.085 116.091 551.577 111.794C544.068 107.497 555.512 80.9562 573.691 86.659Z" fill="black"/>
<path d="M641.23 116.665C641.23 116.665 694.712 134.482 681.639 142.796C668.565 151.111 636.476 122.604 636.476 122.604L641.23 116.665Z" fill="#A0616A"/>
<path d="M606.764 360.164C606.764 360.164 629.345 350.662 626.968 364.915C624.591 379.169 613.895 392.235 613.895 399.362C613.895 406.488 593.691 421.93 590.125 418.366C586.56 414.803 596.068 400.549 593.691 392.235C591.314 383.92 588.937 364.915 588.937 364.915L606.764 360.164Z" fill="#55536E"/>
<path opacity="0.1" d="M606.764 360.164C606.764 360.164 629.345 350.662 626.968 364.915C624.591 379.169 613.895 392.235 613.895 399.362C613.895 406.488 593.691 421.93 590.125 418.366C586.56 414.803 596.068 400.549 593.691 392.235C591.314 383.92 588.937 364.915 588.937 364.915L606.764 360.164Z" fill="black"/>
<path d="M599.633 370.854C599.633 370.854 622.215 361.352 619.838 375.606C617.461 389.859 606.764 402.925 606.764 410.052C606.764 417.179 586.56 432.62 582.995 429.057C579.429 425.493 588.937 411.24 586.56 402.925C584.183 394.61 581.806 375.606 581.806 375.606L599.633 370.854Z" fill="#55536E"/>
<path d="M547.34 284.145C547.34 284.145 617.461 350.662 615.084 356.601C612.707 362.54 597.256 375.606 597.256 375.606C597.256 375.606 543.775 305.525 547.34 284.145Z" fill="#3F3D56"/>
<path opacity="0.1" d="M547.34 284.145C547.34 284.145 617.461 350.662 615.084 356.601C612.707 362.54 597.256 375.606 597.256 375.606C597.256 375.606 543.775 305.525 547.34 284.145Z" fill="black"/>
<path d="M530.702 164.177C530.702 164.177 548.529 181.994 543.775 216.44C539.021 250.886 547.34 284.145 556.848 294.835C566.356 305.525 605.576 367.291 605.576 367.291C605.576 367.291 588.937 394.611 575.864 380.357C562.79 366.103 523.571 307.901 523.571 307.901C523.571 307.901 487.916 237.82 484.351 218.816C480.785 199.811 479.597 170.116 489.105 164.177C498.613 158.238 530.702 164.177 530.702 164.177Z" fill="#3F3D56"/>
<path opacity="0.1" d="M560.176 46.6911C574.057 49.5656 572.679 50.1238 581.212 53.1171C581.259 52.9746 581.307 52.8558 581.354 52.737C582.662 49.625 583.482 53.711 585.371 53.711C590.125 53.711 568.733 33.5184 568.733 33.5184C568.733 33.5184 567.925 35.015 566.534 37.26C566.118 37.9132 565.667 38.6259 565.167 39.3742C564.751 40.0038 564.3 40.669 563.824 41.3579L560.176 46.6911Z" fill="black"/>
<path d="M585.372 63.2134C597.843 63.2134 607.953 53.1093 607.953 40.6452C607.953 28.1811 597.843 18.0769 585.372 18.0769C572.9 18.0769 562.79 28.1811 562.79 40.6452C562.79 53.1093 572.9 63.2134 585.372 63.2134Z" fill="#A0616A"/>
<path d="M543.775 57.2744C543.775 57.2744 578.241 60.8378 585.372 76.2792C592.502 91.7207 541.398 166.552 537.832 167.74C534.267 168.928 484.351 174.867 484.351 174.867C484.351 174.867 486.728 98.8475 533.078 70.3402C533.078 70.3402 543.775 65.589 543.775 57.2744Z" fill="#309975"/>
<path d="M562.79 65.589C562.79 65.589 588.937 76.2792 598.445 86.9695C607.953 97.6597 648.361 116.665 648.361 116.665C648.361 116.665 644.796 132.106 641.23 132.106C637.665 132.106 555.66 97.6597 547.34 95.2841C539.021 92.9085 543.775 64.4012 562.79 65.589Z" fill="#309975"/>
<path d="M583.589 43.6147C583.589 43.6147 589.531 37.6757 577.646 32.9244C577.646 32.9244 589.531 28.1732 591.908 21.0464C594.285 13.9196 602.605 2.04156 609.735 21.0464C616.866 40.0513 629.94 64.9951 587.154 64.9951C587.154 64.9951 576.458 67.3707 576.458 57.8683C576.458 55.1023 577.102 52.3743 578.34 49.9003C579.578 47.4263 581.375 45.2743 583.589 43.6147Z" fill="#3F3D56"/>
</g>
<defs>
<clipPath id="clip0">
<rect width="793" height="536" fill="white"/>
</clipPath>
</defs>
</svg>
