<svg width="497" height="378" viewBox="0 0 497 378" fill="none" xmlns="http://www.w3.org/2000/svg">
<g clip-path="url(#clip0)">
<path opacity="0.1" d="M118.064 315.449C113.879 315.025 109.508 314.571 105.545 315.68C101.582 316.79 98.2981 320.029 99.4747 323.126C102.104 330.029 117.532 325.221 124.646 329.94C127.186 331.626 128.176 334.279 130.16 336.35C133.37 339.713 138.889 341.281 144.215 342.144C176.215 347.326 212.695 333.988 240.741 346.833C249.824 350.994 256.987 357.616 266.946 360.392C280.14 364.071 294.589 360.141 308.241 357.621C325.266 354.505 342.621 353.594 359.879 354.909C372.644 355.895 389.624 356.226 393.71 346.941C396.339 340.97 390.776 334.324 383.391 331.498C376.006 328.673 367.362 328.762 359.116 329.033C343.199 329.605 327.278 330.759 311.362 330.196C280.583 329.102 251.508 316.884 221.536 316.479C186.632 316.055 153.131 318.989 118.064 315.449Z" fill="#3F3D56"/>
<path opacity="0.1" d="M85.705 160.895C80.782 165.88 80.4817 173.522 80.4817 173.522C80.4817 173.522 88.1075 173.088 93.0108 168.099C97.9142 163.109 98.2391 155.471 98.2391 155.471C98.2391 155.471 90.6084 155.92 85.705 160.895Z" fill="white"/>
<path opacity="0.1" d="M105.52 37.7448C107.258 44.5246 113.633 48.7403 113.633 48.7403C113.633 48.7403 117.193 41.9704 115.455 35.1907C113.717 28.4109 107.342 24.2001 107.342 24.2001C107.342 24.2001 103.763 30.97 105.52 37.7448Z" fill="white"/>
<path opacity="0.1" d="M393.439 56.3929C388.516 61.3778 388.211 69.0205 388.211 69.0205C388.211 69.0205 395.841 68.5866 400.745 63.5967C405.648 58.6068 405.968 50.9641 405.968 50.9641C405.968 50.9641 398.342 51.4325 393.439 56.3929Z" fill="white"/>
<path opacity="0.1" d="M243.39 126.251C242.819 133.223 247.461 139.298 247.461 139.298C247.461 139.298 253.039 134.067 253.61 127.09C254.181 120.113 249.539 114.053 249.539 114.053C249.539 114.053 243.961 119.274 243.39 126.251Z" fill="white"/>
<path opacity="0.1" d="M404.895 224.033C404.324 231.005 408.966 237.08 408.966 237.08C408.966 237.08 414.544 231.848 415.115 224.876C415.686 217.904 411.044 211.829 411.044 211.829C411.044 211.829 405.466 217.061 404.895 224.033Z" fill="white"/>
<path opacity="0.1" d="M288.761 47.5225C256.899 46.561 226.553 37.661 197.576 27.8982C168.599 18.1353 139.898 7.34192 108.799 2.17451C88.7969 -1.1488 65.9195 -1.61722 49.8064 7.67721C34.2939 16.6166 29.2823 32.0548 26.5894 46.3785C24.5611 57.1522 23.3697 68.4929 28.9229 78.5812C32.7826 85.5877 39.6256 91.475 44.3615 98.1808C60.8389 121.528 49.191 150.313 31.3401 173.128C22.9709 183.823 13.248 194.02 6.78401 205.405C0.320067 216.79 -2.66821 229.827 2.98835 241.433C8.59077 252.942 21.947 261.585 36.4158 267.665C65.8013 279.992 100.415 283.547 134.192 285.549C208.939 289.986 284.079 288.063 359.022 286.14C386.759 285.43 414.613 284.711 441.897 280.993C457.05 278.932 472.69 275.658 483.693 267.749C497.655 257.71 501.116 240.714 491.757 228.125C476.062 207.017 432.681 201.771 421.697 179.114C415.662 166.644 421.86 152.754 430.638 141.187C449.463 116.375 481.015 94.6061 482.674 66.2395C483.816 46.7631 468.648 27.2572 445.195 18.0416C420.614 8.37738 386.522 9.59527 368.396 25.5856C349.713 42.0296 316.896 48.3656 288.761 47.5225Z" fill="white"/>
<path d="M394.379 140.344C393.701 140.517 393.073 140.85 392.548 141.313C392.022 141.777 391.614 142.359 391.357 143.011L390.864 142.932L389.028 142.636C389.028 142.636 379.3 141.833 377.483 141.956C375.667 142.079 374.53 140.284 374.53 140.284L367.298 134.155L366.736 133.662C367.519 133.367 368.007 133.214 368.007 133.214C368.007 133.214 348.6 109.053 344.415 108.585C340.231 108.116 333.314 102.475 333.245 102.421L333.171 102.037C333.019 101.223 332.905 100.4 332.822 99.5713L333.851 100.202C333.851 99.9164 333.851 99.6304 333.88 99.3445C334.034 96.3627 335.038 93.4877 336.775 91.0608C338.798 88.2503 341.791 86.0413 342.988 82.8018C343.465 81.4087 343.68 79.9393 343.623 78.4677C343.653 75.8168 342.955 73.2086 341.604 70.9286C340.916 69.7889 339.994 68.8085 338.899 68.052C337.804 67.2956 336.562 66.7803 335.254 66.5403C334.564 66.4318 333.86 66.417 333.181 66.2592C329.139 65.3076 327.652 59.8789 323.724 58.5476C321.893 57.9263 319.854 58.3355 318.087 59.1047C316.32 59.8739 314.72 60.9784 312.992 61.8314C311.264 62.6844 309.304 63.3106 307.734 64.5187C307.571 64.6419 307.399 64.7899 307.242 64.9427L306.931 65.2435C306.283 65.9024 305.719 66.6394 305.253 67.4377L305.179 67.5609C305.13 67.6448 305.085 67.7335 305.041 67.8223C304.997 67.911 304.967 67.9603 304.938 68.0294C304.908 68.0984 304.859 68.1871 304.824 68.266L304.721 68.5027L304.632 68.7295C304.603 68.8133 304.568 68.8972 304.544 68.9859C304.519 69.0747 304.495 69.1289 304.475 69.2029L304.401 69.4642L304.357 69.6762C304.357 69.765 304.322 69.8587 304.307 69.9474C304.293 70.0362 304.307 70.0805 304.307 70.1446C304.307 70.2087 304.307 70.332 304.307 70.4257C304.307 70.5194 304.307 70.549 304.307 70.6081C304.307 70.6673 304.307 70.8054 304.307 70.9089C304.307 71.0125 304.307 71.0075 304.307 71.0568C304.327 71.2018 304.356 71.3452 304.396 71.4858C304.662 72.3931 305.578 73.32 306.277 74.1287C306.198 74.2026 306.119 74.2717 306.04 74.3506C304.379 75.9545 303.057 77.8777 302.154 80.005C301.252 82.1324 300.787 84.4202 300.787 86.7316C300.788 87.7587 300.882 88.7836 301.068 89.7936C300.173 89.1167 299.212 88.5335 298.198 88.0531C294.864 86.4522 291.217 85.6102 287.52 85.5877C281.489 85.5187 273.017 83.2505 273.017 83.2505C273.233 83.6645 273.398 84.1033 273.509 84.5572C273.14 84.3452 272.741 84.1183 272.303 83.8817C268.771 81.9823 264.942 80.6985 260.98 80.085C260.98 80.085 258.469 80.4351 258.134 75.1543C258.019 73.5043 257.722 71.8721 257.248 70.2876C255.807 65.4579 254.808 60.5067 254.265 55.4954L253.423 47.7443C253.423 47.7443 257.214 27.5283 254.934 18.9094C255.668 16.2073 255.254 13.7321 252.837 11.9521C243.301 4.92089 233.682 32.2865 233.682 32.2865L230.107 35.7626C229.191 35.1641 228.157 34.7691 227.075 34.6039C227.075 34.6039 225.15 36.5762 223.811 41.9606C223.102 44.8155 218.258 49.5835 213.876 53.4245C210.765 56.1512 207.762 58.9864 204.764 61.8314C202.548 63.9418 197.611 66.9594 186.839 68.6654C185.15 68.9317 183.614 69.1832 182.211 69.4149C182.57 68.1409 182.752 66.8236 182.753 65.4999C182.736 62.1682 181.589 58.9412 179.499 56.349C177.409 53.7568 174.501 51.9535 171.253 51.2353C171.302 50.8902 171.302 50.5399 171.253 50.1949C171.071 49.4525 170.696 48.7718 170.165 48.2226C167.895 45.4121 165.434 42.5227 162.056 41.1914C160.664 40.6489 159.172 40.4085 157.68 40.4863H156.931C156.779 40.4863 156.631 40.4863 156.479 40.4863C154.886 40.5746 153.331 41.002 151.917 41.74C150.502 42.4781 149.261 43.5097 148.277 44.7662C147.066 46.3884 146.337 48.3114 145.293 50.042C143.354 53.247 140.37 55.7173 137.136 57.6699C135.191 58.8483 133.148 59.8641 131.312 61.2003C124.651 66.0472 121.579 75.0064 123.253 83.0139C123.991 86.5295 125.552 89.9909 125.134 93.5558C124.804 96.3219 123.317 98.807 121.801 101.154C120.284 103.501 118.68 105.888 118.079 108.604C117.478 111.321 118.108 114.521 120.383 116.168C121.22 116.77 122.234 117.154 122.948 117.884C123.423 118.446 123.82 119.07 124.129 119.738C125.337 121.923 126.975 123.84 128.944 125.372C130.913 126.905 133.173 128.021 135.585 128.653C136.35 128.849 137.139 128.935 137.929 128.909H138.012H138.165C139.972 129.023 141.823 128.539 142.428 126.937C142.52 126.573 142.657 126.221 142.837 125.892C143.007 125.646 143.261 125.47 143.551 125.398C144.133 125.532 144.695 125.744 145.22 126.03C147.742 127.34 150.5 128.129 153.333 128.352C153.806 128.39 154.281 128.398 154.756 128.377C155.741 128.469 156.735 128.327 157.655 127.962C158.541 127.512 159.305 126.856 159.885 126.049C160.013 125.887 160.131 125.714 160.255 125.556C159.604 129.494 158.38 133.315 156.621 136.897C156.621 136.897 153.668 141.828 153.879 146.798C153.766 148.609 154.149 150.416 154.987 152.024C154.987 152.024 155.071 151.807 155.243 151.467C156.09 152.887 158.866 157.429 160.688 159.021C160.776 163.71 160.757 169.583 160.171 170.791C159.186 172.857 156.075 187.555 169.456 197.579L172.542 204.349L159.836 205.252C158.551 205.074 141.936 202.836 141.852 206.095C141.769 209.482 144.363 242.469 152.978 240.235C161.008 238.154 158.359 228.535 157.96 227.243L158.246 227.164L157.931 227.075L164.355 220.976C164.477 220.233 164.3 219.473 163.863 218.861L163.927 218.826L179.445 219.521L183.093 227.46C183.093 227.46 189.281 236.887 184.264 244.821C179.248 252.754 174.059 265.16 173.222 272.684C172.538 278.838 167.989 284.883 166.359 286.875C163.45 287.861 152.289 292.25 156.744 298.891C161.845 306.494 178.406 320.966 185.101 320.468C191.796 319.97 189.113 315.094 189.113 315.094L183.516 309.66C183.516 309.66 182.531 298.083 182.93 294.695C183.147 292.935 181.852 291.668 180.469 291.13C180.995 287.358 182.329 280.209 185.195 276.259C189.207 270.717 202.09 246.33 202.09 246.33C202.09 246.33 206.186 242.691 205.266 231.863C204.897 227.494 204.69 223.658 204.572 220.626L219.154 221.281C219.154 221.281 234.794 219.709 224.17 202.924C213.546 186.14 190.964 169.691 190.964 169.691L190.763 159.302C191.787 159.559 192.387 159.687 192.387 159.687C192.387 159.687 192.299 159.312 192.151 158.641L192.387 158.696C192.387 158.696 189.123 144.549 188.119 133.302L189.04 133.726C198.743 144.973 205.286 135.467 205.286 135.467C205.286 135.467 225.78 106.612 223.772 107.934C223.564 108.037 223.337 108.098 223.106 108.112C222.874 108.126 222.642 108.094 222.423 108.018L223.9 103.304C223.9 103.304 229.95 94.0439 221.167 88.8371C213.999 84.5868 214.186 97.9096 214.497 102.944L214.142 102.643C214.142 102.643 207.284 112.998 203.602 118.767C199.919 124.536 196.828 120.739 196.828 120.739L192.175 115.488C192.94 113.384 193.315 111.158 193.283 108.92C193.385 107.358 193.157 105.793 192.615 104.325C192.073 102.857 191.229 101.519 190.137 100.4C186.588 96.7755 185.549 93.2649 185.441 90.5628C185.476 89.1629 185.792 87.7844 186.371 86.5098L210.548 73.6898C210.548 73.6898 215.649 73.7687 222.506 63.1874C226.951 56.4199 231.842 49.9577 237.147 43.8441C237.147 43.8441 237.005 43.637 236.759 43.2968C237.005 43.0059 237.147 42.8481 237.147 42.8481C237.147 42.8481 236.867 42.4388 236.389 41.8077L240.116 37.5032C239.998 39.4487 239.984 41.399 240.072 43.3461L242.002 49.8793L243.085 86.2534C243.085 86.2534 241.913 89.7049 249.445 93.2008C255.816 96.1592 265.908 101.09 268.852 102.545C268.743 102.811 268.679 102.954 268.679 102.954L269.556 102.895L269.684 102.954C284.399 101.632 283.897 116.346 283.897 116.346C283.897 116.346 284.881 146.275 280.386 156.694C275.892 167.112 276.537 180.006 276.537 180.006C276.537 180.006 276.985 177.807 279.49 180.682C279.441 180.933 279.387 181.205 279.328 181.486C277.89 188.699 274.897 204.044 274.341 210.266C273.728 215.937 272.636 221.545 271.077 227.031L269.6 254.559L279.008 255.018L278.905 256.004C278.853 256.504 278.681 256.983 278.403 257.402C278.125 257.82 277.75 258.164 277.31 258.405C274.09 260.155 266.479 266.294 267.089 285.238L266.764 288.285C266.243 293.446 264.681 298.447 262.171 302.984C261.955 303.368 261.763 303.738 261.6 304.093C261.625 303.894 261.715 303.708 261.856 303.566C261.856 303.566 256.968 304.581 257.972 317.811C258.976 331.04 260.483 333.352 262.491 333.515C264.5 333.678 274.306 336.079 273.78 331.202C273.253 326.326 272.795 315.493 273.445 313.841C274.095 312.189 276.763 307.732 274.233 306.657C274.966 303.623 275.322 300.509 275.291 297.387C275.291 297.387 280.214 289.617 283.734 286.722C287.254 283.828 289.149 278.912 290.424 272.586C290.513 272.172 300.797 265.308 299.286 259.608C299.02 258.622 298.828 257.749 298.68 256.96C298.616 256.61 298.562 256.28 298.513 255.974H298.695L300.787 243.406V255.644L302.028 255.807L301.984 256.793L301.457 268.528C301.362 270.813 300.861 273.064 299.98 275.174C297.765 280.426 293.679 292.116 294.791 304.759L294.673 316.031C294.319 316.1 289.208 317.308 290.178 330.083C291.163 343.307 292.684 345.625 294.693 345.787C296.701 345.95 306.508 348.351 305.986 343.475C305.464 338.598 305.002 327.766 305.651 326.114C306.301 324.462 307.473 320.093 304.943 319.019C304.956 317.537 305.317 316.079 305.996 314.763C307.099 312.885 310.781 303.955 313.553 297.087C316.386 290.135 317.962 282.733 318.205 275.229C318.205 275.145 318.205 275.061 318.205 274.977C318.28 272.445 318.822 269.949 319.805 267.616C320.938 265.004 321.835 262.296 322.483 259.524C322.552 259.194 322.606 258.873 322.656 258.538L325.058 258.859L333.26 223.308C333.26 223.308 335.505 204.039 334.407 195.336C334.363 194.976 334.313 194.646 334.254 194.325L334.747 194.37C334.747 194.37 336.42 190.075 335.918 171.718C335.416 153.361 339.266 147.557 339.266 147.557C341.343 140.96 343.638 138.751 344.977 138.011C345.321 137.791 345.716 137.662 346.124 137.637L352.332 144.752L353.474 146.063C353.476 146.037 353.476 146.011 353.474 145.984L353.966 146.561C353.929 146.269 353.915 145.973 353.927 145.679C357.24 147.606 364.895 152.113 369.464 155.348C375.421 159.564 377.055 159.07 382.264 158.632C385.424 158.37 389.697 156.595 392.563 155.244L392.824 155.121C393.595 155.533 394.406 155.864 395.246 156.107C395.246 156.107 403.654 163.242 404.467 150.22C405.279 137.198 394.379 140.344 394.379 140.344ZM176.289 291.993C175.433 291.738 174.607 291.389 173.827 290.953L176.289 291.993ZM163.125 151.033L163.154 152.882L163.026 152.942C163.066 152.291 163.095 151.65 163.125 151.033ZM294.639 316.075V316.795C294.548 316.697 294.497 316.568 294.497 316.435C294.497 316.301 294.548 316.173 294.639 316.075Z" fill="url(#paint0_linear)"/>
<path d="M321.479 99.4185H307.202V114.457H321.479V99.4185Z" fill="#FF7590"/>
<path d="M289.854 273.064C288.598 279.351 286.737 284.237 283.291 287.117C279.845 289.996 275.006 297.718 275.006 297.718C274.922 307.989 272.214 311.11 272.214 311.11L269.423 311.849H262.531C262.531 311.849 261.3 308.398 261.054 306.347C260.97 305.661 261.457 304.512 262.137 303.28C264.601 298.761 266.132 293.793 266.641 288.67L266.961 285.638C266.381 266.817 273.854 260.708 276.99 258.967C277.423 258.725 277.791 258.382 278.063 257.966C278.335 257.55 278.502 257.075 278.55 256.581L279.107 251.201L297.647 252.113C297.647 252.113 297.253 253.75 297.957 257.537C298.1 258.321 298.292 259.194 298.548 260.165C300.025 265.831 289.932 272.65 289.854 273.064Z" fill="#8E5362"/>
<path d="M321.292 260.067C320.656 262.82 319.778 265.511 318.668 268.109C317.702 270.431 317.168 272.911 317.093 275.426C317.093 275.51 317.093 275.594 317.093 275.677C316.853 283.131 315.308 290.484 312.529 297.402C309.807 304.226 306.198 313.107 305.115 314.975C303.313 318.097 304.376 323.358 304.376 323.358L293.94 322.618L294.122 305.03C293.034 292.472 297.041 280.87 299.212 275.628C300.089 273.532 300.589 271.297 300.689 269.026L301.181 257.36L301.334 253.908C301.334 253.908 319.786 251.28 321.341 255.471C321.77 256.581 321.666 258.232 321.292 260.067Z" fill="#8E5362"/>
<path opacity="0.1" d="M297.957 257.537L278.531 256.581L279.087 251.201L297.647 252.113C297.647 252.113 297.238 253.746 297.957 257.537Z" fill="black"/>
<path opacity="0.1" d="M321.292 260.067L301.177 257.36L301.329 253.908C301.329 253.908 319.781 251.28 321.336 255.471C321.77 256.581 321.666 258.232 321.292 260.067Z" fill="black"/>
<path d="M331.862 224.082L323.822 259.421L300.029 256.216V244.052L297.972 256.551L269.418 255.151L270.895 227.785C272.425 222.324 273.495 216.745 274.095 211.105C274.651 204.921 277.575 189.671 278.988 182.506C279.481 180.144 279.756 178.655 279.756 178.655C279.756 178.655 328.662 188.842 331.862 192.54C332.408 193.171 332.768 194.513 332.989 196.293C334.062 204.931 331.862 224.082 331.862 224.082Z" fill="#BDD2E8"/>
<path opacity="0.1" d="M274.755 226.385C274.755 226.385 294.004 216.277 298.695 218.412L274.755 226.385Z" fill="black"/>
<path opacity="0.1" d="M285.255 193.349C285.255 193.349 301.255 205.513 301.748 208.797L285.255 193.349Z" fill="black"/>
<path opacity="0.1" d="M280.908 235.26C280.908 235.26 292.478 234.767 296.17 237.726L280.908 235.26Z" fill="black"/>
<path opacity="0.1" d="M301.747 222.253C301.747 222.253 307.247 240.28 304.864 245.21C302.481 250.141 300.024 244.057 300.024 244.057L301.747 222.253Z" fill="black"/>
<path d="M294.023 316.213C294.023 316.213 288.608 317.036 289.593 330.182C290.577 343.327 292.054 345.635 294.023 345.797C295.992 345.96 305.592 348.347 305.1 343.495C304.608 338.643 304.116 327.884 304.77 326.237C305.425 324.59 306.557 320.256 304.076 319.186L303.54 321.721C303.54 321.721 298.287 316.869 295.17 320.404C295.037 319.542 294.821 318.695 294.525 317.875C294.215 317.105 293.536 316.706 294.023 316.213Z" fill="#494457"/>
<path d="M393.129 154.889C393.129 154.889 391.888 155.584 390.067 156.452C387.256 157.793 383.066 159.559 379.965 159.82C374.855 160.254 373.255 160.747 367.411 156.556C362.926 153.341 355.419 148.859 352.15 146.946L350.727 146.103L350.584 146.019V145.96L353.297 138.495L362.897 133.381L365.279 135.428L372.374 141.517C372.374 141.517 373.481 143.302 375.268 143.179C377.055 143.055 386.591 143.854 386.591 143.854L388.393 144.15L392.189 144.781L393.129 154.889Z" fill="#8E5362"/>
<path opacity="0.1" d="M393.129 154.889C393.129 154.889 391.888 155.584 390.067 156.452C388.142 155.466 385.749 153.617 386.67 150.575C387.502 147.838 387.728 145.703 388.413 144.165L392.208 144.796L393.129 154.889Z" fill="black"/>
<path d="M391.839 141.576C391.839 141.576 402.547 138.494 401.749 151.438C400.951 164.381 392.7 157.295 392.7 157.295C392.7 157.295 385.685 155.446 387.162 150.575C388.639 145.703 388.211 142.75 391.839 141.576Z" fill="#8E5362"/>
<path d="M280.825 99.6649L269.669 104.359L269.497 104.433L269.374 104.374L268.68 104.024C265.795 102.584 255.88 97.6581 249.642 94.7342C242.258 91.2826 243.405 87.8311 243.405 87.8311L242.341 51.674L240.451 45.1803C240.451 45.1803 239.117 23.1695 249.805 17.652C260.493 12.1345 253.581 49.5341 253.581 49.5341L254.408 57.3049C254.942 62.2761 255.922 67.1889 257.337 71.9837C257.799 73.5601 258.089 75.1819 258.203 76.8208C258.533 82.077 260.995 81.7269 260.995 81.7269C264.883 82.3383 268.636 83.616 272.091 85.5038C273.374 86.1823 274.602 86.9604 275.764 87.8311L280.825 99.6649Z" fill="#8E5362"/>
<path d="M320.539 116.923L311.018 115.936C311.018 115.936 313.824 111.755 315.059 107.687C315.234 107.129 315.374 106.561 315.478 105.986C315.763 104.374 315.69 102.88 314.956 101.8C312.17 97.6926 331.532 91.9385 331.532 91.9385C331.296 94.2117 331.226 96.4989 331.32 98.7823C331.375 100.371 331.54 101.954 331.812 103.521C332.398 106.711 333.565 109.714 335.79 111.252C341.87 115.443 320.539 116.923 320.539 116.923Z" fill="#8E5362"/>
<path opacity="0.1" d="M320.539 116.923L311.018 115.936C311.018 115.936 313.824 111.755 315.059 107.687C316.157 109.25 316.536 109.216 318.077 109.527C318.077 109.527 327.687 110.951 331.822 103.521C332.408 106.711 333.575 109.714 335.8 111.252C341.87 115.443 320.539 116.923 320.539 116.923Z" fill="black"/>
<path opacity="0.1" d="M352.169 146.946C352.158 147.239 352.171 147.533 352.209 147.823L350.732 146.103L350.609 145.96L353.321 138.495L362.921 133.381L365.304 135.428C361.892 136.734 352.322 140.881 352.169 146.946Z" fill="black"/>
<path opacity="0.1" d="M280.825 99.665L269.669 104.359H269.374L268.512 104.418C268.512 104.418 268.576 104.275 268.68 104.009C269.61 101.746 273.928 90.696 272.062 85.4891C273.345 86.1676 274.573 86.9457 275.734 87.8164L280.825 99.665Z" fill="black"/>
<path opacity="0.1" d="M332.989 196.278C328.647 195.888 285.206 191.865 281.154 185.46C280.514 184.416 279.79 183.427 278.988 182.501C279.481 180.139 279.756 178.65 279.756 178.65C279.756 178.65 328.662 188.837 331.862 192.535C332.408 193.157 332.767 194.493 332.989 196.278Z" fill="black"/>
<path d="M318.077 110.02C318.077 110.02 327.79 111.459 331.896 103.901C331.896 103.901 338.754 109.541 342.855 110.024C346.956 110.508 365.993 134.511 365.993 134.511C365.993 134.511 350.732 139.441 351.716 147.33L344.494 138.948C344.494 138.948 340.886 138.781 337.769 148.81C337.769 148.81 333.993 154.559 334.486 172.803C334.978 191.046 333.339 195.321 333.339 195.321C333.339 195.321 285.418 191.214 281.155 184.474C276.891 177.733 276.232 181.022 276.232 181.022C276.232 181.022 275.572 168.202 280.003 157.848C284.433 147.493 283.449 117.746 283.449 117.746C283.449 117.746 283.941 103.117 269.502 104.433C269.502 104.433 275.572 90.2966 272.785 84.8728C272.785 84.8728 281.091 87.1311 287.008 87.2001C290.64 87.2284 294.22 88.0708 297.484 89.6655C299.261 90.5382 300.901 91.6378 301.831 92.9493C304.618 96.8939 309.216 95.0893 309.216 95.0893C310.375 98.6989 311.807 102.215 313.499 105.607C313.691 105.966 313.883 106.322 314.08 106.662C314.365 107.155 314.661 107.648 314.956 108.052C316.138 109.743 316.472 109.699 318.077 110.02Z" fill="#FF7590"/>
<path opacity="0.1" d="M331.32 98.7676C330.797 99.512 330.214 100.213 329.577 100.863C327.976 102.509 326.063 103.816 323.949 104.709C321.835 105.601 319.564 106.061 317.27 106.06C316.676 106.06 316.083 106.031 315.493 105.971C315.778 104.359 315.704 102.865 314.971 101.785C312.184 97.6779 331.547 91.9237 331.547 91.9237C331.306 94.1965 331.231 96.4838 331.32 98.7676Z" fill="black"/>
<path d="M334.486 88.3242C334.486 91.7374 333.475 95.074 331.582 97.912C329.689 100.75 326.997 102.962 323.849 104.268C320.7 105.574 317.236 105.916 313.894 105.25C310.551 104.584 307.481 102.941 305.071 100.527C302.661 98.1136 301.02 95.0386 300.356 91.691C299.691 88.3434 300.032 84.8734 301.336 81.72C302.64 78.5666 304.849 75.8714 307.682 73.9751C310.516 72.0788 313.847 71.0666 317.255 71.0666C319.52 71.0582 321.765 71.4988 323.859 72.363C325.953 73.2273 327.856 74.4982 329.458 76.1024C331.06 77.7066 332.328 79.6124 333.191 81.71C334.054 83.8076 334.494 86.0555 334.486 88.3242Z" fill="#8E5362"/>
<path opacity="0.1" d="M343.022 127.77L343.377 139.318C343.377 139.318 348.521 135.166 348.684 131.222C348.846 127.277 343.022 127.77 343.022 127.77Z" fill="black"/>
<path opacity="0.1" d="M301.501 139.318C301.501 139.318 315.04 157.931 322.917 159.82C330.794 161.708 304.455 145.353 301.501 139.318Z" fill="black"/>
<path opacity="0.1" d="M315.862 141.256C315.862 141.256 323.409 149.796 328.824 150.861L315.862 141.256Z" fill="black"/>
<path opacity="0.1" d="M289.278 162.778C289.278 162.778 303.062 176.338 310.939 177.161L289.278 162.778Z" fill="black"/>
<path opacity="0.1" d="M334.486 88.3243C334.488 92.8357 332.72 97.1672 329.563 100.385L327.672 99.2064C326.941 98.8251 326.31 98.276 325.831 97.6039C325.206 96.5586 325.388 95.247 325.437 94.0291C325.541 91.4504 324.832 88.6596 322.818 87.0472C319.554 84.429 314.321 85.8786 311.003 83.3097C310.204 82.6301 309.5 81.8456 308.911 80.9775L305.799 76.8011C305.612 76.5546 305.386 76.3081 305.145 76.0172C307.567 73.6313 310.64 72.016 313.976 71.3743C317.312 70.7325 320.764 71.093 323.896 72.4103C327.029 73.7277 329.703 75.9431 331.582 78.7782C333.46 81.6132 334.461 84.9413 334.456 88.344L334.486 88.3243Z" fill="black"/>
<path d="M306.872 66.2247C308.413 65.0463 310.294 64.425 312.027 63.5572C313.76 62.6894 315.291 61.5849 317.024 60.8453C318.757 60.1057 320.76 59.6718 322.557 60.2881C326.412 61.6145 327.869 67.0087 331.832 67.9554C332.502 68.1132 333.191 68.128 333.865 68.2315C335.153 68.4759 336.374 68.9913 337.447 69.7436C338.521 70.4958 339.423 71.4678 340.093 72.5952C341.416 74.8702 342.097 77.4624 342.062 80.0949C342.117 81.5559 341.905 83.0146 341.437 84.3994C340.265 87.6192 337.326 89.8232 335.342 92.6091C333.464 95.275 332.467 98.4634 332.492 101.726L327.687 98.733C326.955 98.3533 326.323 97.8039 325.846 97.1306C325.221 96.0852 325.403 94.7737 325.452 93.5558C325.555 90.977 324.846 88.1862 322.838 86.5739C319.569 83.9556 314.336 85.4053 311.023 82.8364C310.224 82.1568 309.52 81.3723 308.93 80.5041L305.819 76.3278C305.144 75.4205 303.85 74.2914 303.554 73.1869C302.9 70.8103 305.14 67.5609 306.872 66.2247Z" fill="#362133"/>
<path opacity="0.1" d="M328.224 98.1759C327.491 97.7962 326.86 97.2468 326.383 96.5735C325.757 95.5281 325.939 94.2166 325.989 92.9987C326.092 90.4199 325.383 87.6291 323.37 86.0168C320.106 83.3985 314.872 84.8482 311.554 82.2793C310.755 81.5997 310.051 80.8152 309.462 79.947L306.351 75.7707C305.671 74.8634 304.381 73.7343 304.086 72.6298C303.549 70.7265 304.908 68.2464 306.36 66.6587C304.731 68.1675 302.944 71.0323 303.549 73.1673C303.864 74.2717 305.14 75.4009 305.814 76.3081L308.925 80.4845C309.515 81.3526 310.219 82.1371 311.018 82.8167C314.321 85.3856 319.554 83.936 322.833 86.5542C324.842 88.1666 325.551 90.9574 325.447 93.5361C325.398 94.754 325.216 96.0656 325.841 97.1109C326.319 97.7843 326.95 98.3337 327.682 98.7134L332.487 101.706C332.487 101.42 332.487 101.134 332.517 100.853L328.224 98.1759Z" fill="black"/>
<path d="M261.827 303.856C261.827 303.856 257.032 304.843 258.016 318.013C259.001 331.183 260.478 333.466 262.447 333.628C264.416 333.791 274.016 336.178 273.524 331.326C273.032 326.474 272.539 315.715 273.194 314.068C273.849 312.421 276.448 307.998 273.967 306.928L271.963 309.551C271.963 309.551 266.71 304.7 263.594 308.235C263.594 308.235 260.68 305.005 261.827 303.856Z" fill="#494457"/>
<path opacity="0.1" d="M264.859 312.022C265.898 312.515 266.868 313.116 267.902 313.609C268.92 314.143 270.056 314.411 271.205 314.388C271.693 314.379 272.165 314.215 272.554 313.92" fill="black"/>
<path opacity="0.1" d="M296.416 324.901C297.031 325.468 297.509 326.193 298.203 326.661C299.187 327.322 300.448 327.361 301.649 327.376C301.849 327.394 302.05 327.369 302.24 327.302C302.454 327.185 302.636 327.016 302.767 326.809L303.411 325.976" fill="black"/>
<path d="M215.516 106.238C215.516 106.238 213.3 85.2031 221.915 90.3803C230.531 95.5576 224.599 104.758 224.599 104.758L222.575 111.252L215.516 106.238Z" fill="#FFC1C7"/>
<path d="M229.3 39.0169L234.223 34.1749C234.223 34.1749 243.661 6.97202 253.014 13.9589C262.368 20.9457 241.16 38.6126 241.16 38.6126L235.538 45.1852L229.3 39.0169Z" fill="#FFC1C7"/>
<path d="M157.256 146.596L157.01 152.182C157.01 152.182 161.525 160.071 163.41 160.648C165.296 161.225 165.133 143.963 165.133 143.963L157.256 146.596Z" fill="#FF5374"/>
<path opacity="0.1" d="M157.256 146.596L157.01 152.182C157.01 152.182 161.525 160.071 163.41 160.648C165.296 161.225 165.133 143.963 165.133 143.963L157.256 146.596Z" fill="black"/>
<path d="M164.803 140.462L165.138 161.053H188.025L186.302 149.056L164.803 140.462Z" fill="#FFC1C7"/>
<path d="M170.14 191.87L171.208 198.442L184.584 228.194C184.584 228.194 190.654 237.563 185.731 245.452C180.808 253.341 175.723 265.668 174.901 273.143C174.079 280.618 167.6 287.935 167.6 287.935L181.714 293.936C181.714 293.936 182.699 282.186 186.637 276.678C190.576 271.171 203.208 246.931 203.208 246.931C203.208 246.931 207.23 243.312 206.329 232.548C205.428 221.785 205.507 214.221 205.507 214.221L204.114 197.047L170.14 191.87Z" fill="#575988"/>
<path opacity="0.1" d="M170.14 191.87L171.208 198.442L184.584 228.194C184.584 228.194 190.654 237.563 185.731 245.452C180.808 253.341 175.723 265.668 174.901 273.143C174.079 280.618 167.6 287.935 167.6 287.935L181.714 293.936C181.714 293.936 182.699 282.186 186.637 276.678C190.576 271.171 203.208 246.931 203.208 246.931C203.208 246.931 207.23 243.312 206.329 232.548C205.428 221.785 205.507 214.221 205.507 214.221L204.114 197.047L170.14 191.87Z" fill="black"/>
<path d="M168.826 287.033C168.826 287.033 153.727 291.633 158.734 299.197C163.74 306.761 179.986 321.139 186.549 320.646C193.111 320.153 190.487 315.301 190.487 315.301L184.988 309.877C184.988 309.877 184.003 298.374 184.417 295.006C184.831 291.638 179.74 290.075 179.08 292.047C178.421 294.02 168.826 287.033 168.826 287.033Z" fill="#C4747B"/>
<path d="M178.342 152.305L166.374 153.632C165.305 153.75 164.319 154.266 163.611 155.078C162.904 155.89 162.526 156.938 162.554 158.015C162.682 162.808 162.765 170.431 162.096 171.821C161.111 173.877 158.079 188.507 171.204 198.447L189.01 204.118L160.457 206.174L161.362 222.036L165.793 219.57L219.946 222.036C219.946 222.036 235.292 220.473 224.87 203.792C214.447 187.111 192.299 170.756 192.299 170.756L192.053 157.769L190.408 153.992L178.342 152.305Z" fill="#575988"/>
<path opacity="0.1" d="M193.195 203.866C195.136 203.017 197.231 202.579 199.348 202.579C201.466 202.579 203.561 203.017 205.502 203.866H193.195Z" fill="black"/>
<path d="M161.855 206.085C161.855 206.085 144.216 203.541 144.132 206.908C144.048 210.276 146.593 243.066 155.046 240.847C163.499 238.628 159.886 227.78 159.886 227.78L166.207 221.701C166.207 221.701 166.861 218.333 162.677 218.658L161.855 206.085Z" fill="#C4747B"/>
<path d="M191.063 114.127L198.034 122.1C198.034 122.1 201.071 125.882 204.68 120.128C208.289 114.373 215.018 104.103 215.018 104.103C215.018 104.103 222.487 110.675 224.456 109.364C226.425 108.052 206.324 136.734 206.324 136.734C206.324 136.734 199.924 146.182 190.403 135.009L187.617 133.692L191.063 114.127Z" fill="#FF5374"/>
<path opacity="0.1" d="M191.063 114.127L198.034 122.1C198.034 122.1 201.071 125.882 204.68 120.128C208.289 114.373 215.018 104.103 215.018 104.103C215.018 104.103 222.487 110.675 224.456 109.364C226.425 108.052 206.324 136.734 206.324 136.734C206.324 136.734 199.924 146.182 190.403 135.009L187.617 133.692L191.063 114.127Z" fill="black"/>
<path d="M169.736 81.727C177.757 81.727 184.259 75.2146 184.259 67.1813C184.259 59.1479 177.757 52.6356 169.736 52.6356C161.716 52.6356 155.213 59.1479 155.213 67.1813C155.213 75.2146 161.716 81.727 169.736 81.727Z" fill="#FFC1C7"/>
<path opacity="0.1" d="M169.732 75.0113C169.732 75.0113 157.252 80.9282 158.729 91.2827C160.205 101.637 160.452 114.704 160.452 114.704C160.452 114.704 166.118 123.086 158.605 139.111C158.605 139.111 153.806 147.247 157.006 153.163C157.006 153.163 160.555 143.795 169.732 150.698C178.908 157.601 193.682 160.806 193.682 160.806C193.682 160.806 186.051 127.277 190.728 122.593C190.728 122.593 198.851 110.513 191.467 102.87C184.082 95.2273 187.774 88.0777 187.774 88.0777L211.489 75.3416C211.489 75.3416 216.491 75.4205 223.22 64.9033C227.577 58.1822 232.375 51.7581 237.581 45.6734C237.581 45.6734 232.49 38.0308 227.735 37.4539C227.735 37.4539 225.844 39.4262 224.535 44.7711C223.836 47.6062 219.085 52.3447 214.787 56.166C211.735 58.8779 208.791 61.6934 205.852 64.5483C203.676 66.6438 198.832 69.6417 188.267 71.3379C170.879 74.1139 169.732 75.0113 169.732 75.0113Z" fill="black"/>
<path d="M169.732 74.0252C169.732 74.0252 157.252 79.9421 158.729 90.2966C160.205 100.651 160.452 113.718 160.452 113.718C160.452 113.718 166.118 122.1 158.605 138.125C158.605 138.125 153.806 146.26 157.006 152.177C157.006 152.177 160.555 142.809 169.732 149.712C178.908 156.615 193.682 159.82 193.682 159.82C193.682 159.82 186.051 126.291 190.728 121.607C190.728 121.607 198.851 109.526 191.467 101.884C184.082 94.2412 187.774 87.0916 187.774 87.0916L211.489 74.3555C211.489 74.3555 216.491 74.4344 223.22 63.9172C227.577 57.1961 232.375 50.772 237.581 44.6873C237.581 44.6873 232.49 37.0447 227.735 36.4678C227.735 36.4678 225.844 38.4401 224.535 43.785C223.836 46.6202 219.085 51.3586 214.787 55.1799C211.735 57.8918 208.791 60.7073 205.852 63.5622C203.676 65.6577 198.832 68.6556 188.267 70.3518C170.879 73.1278 169.732 74.0252 169.732 74.0252Z" fill="#FF5374"/>
<path opacity="0.1" d="M180.478 135.99C180.478 135.99 190.157 150.289 190.403 152.754C190.408 152.754 188.931 137.385 180.478 135.99Z" fill="black"/>
<path opacity="0.1" d="M167.762 87.8312C167.762 87.8312 174.512 95.9669 184.264 89.1477C181.569 90.0643 178.715 90.4204 175.878 90.194C173.04 89.9676 170.279 89.1636 167.762 87.8312Z" fill="black"/>
<path opacity="0.1" d="M172.995 51.97C172.818 51.2311 172.452 50.5512 171.932 49.9977C169.707 47.202 167.29 44.3323 163.976 43.0059C161.777 42.183 159.373 42.0865 157.115 42.7306C154.857 43.3748 152.864 44.7256 151.428 46.5857C150.236 48.1931 149.527 50.1062 148.498 51.827C146.598 55.0123 143.659 57.4678 140.498 59.4105C138.593 60.5791 136.585 61.5899 134.788 62.9163C128.255 67.7336 125.237 76.6385 126.881 84.6115C127.605 88.1024 129.136 91.5441 128.723 95.0893C128.403 97.8407 126.94 100.306 125.459 102.643C123.977 104.98 122.396 107.347 121.806 110.039C121.215 112.731 121.835 115.922 124.065 117.554C124.887 118.155 125.877 118.54 126.581 119.26C127.047 119.82 127.436 120.44 127.738 121.104C128.911 123.271 130.512 125.175 132.445 126.701C134.377 128.227 136.6 129.343 138.977 129.979C141.094 130.536 143.935 130.334 144.708 128.283C144.796 127.921 144.93 127.571 145.106 127.243C145.805 126.256 147.346 126.809 148.429 127.376C150.895 128.667 153.596 129.443 156.37 129.659C157.47 129.804 158.589 129.67 159.624 129.269C160.498 128.825 161.25 128.173 161.815 127.371C164.405 123.993 165.148 119.58 165.591 115.345C165.882 112.588 166.083 109.783 165.557 107.061C164.72 102.692 162.066 98.6099 162.46 94.1821C162.879 89.4485 166.714 85.5779 167.299 80.8691C167.597 78.4036 166.982 75.9144 165.571 73.8723C165.051 73.2418 164.609 72.5496 164.257 71.8113C164.089 71.4379 164.037 71.0226 164.107 70.6191C164.177 70.2156 164.367 69.8425 164.651 69.5481C164.963 69.3281 165.309 69.1615 165.675 69.055C168.84 67.8371 170.529 64.6617 170.755 61.4124C170.844 60.1797 170.755 59.0456 171.095 57.8425C171.637 55.9836 173.276 53.9522 172.995 51.97Z" fill="black"/>
<path d="M172.011 51.97C171.834 51.2311 171.467 50.5512 170.947 49.9977C168.722 47.202 166.305 44.3323 162.992 43.0059C160.792 42.183 158.388 42.0865 156.13 42.7306C153.872 43.3748 151.879 44.7256 150.443 46.5857C149.252 48.1931 148.543 50.1062 147.514 51.827C145.613 55.0123 142.674 57.4678 139.514 59.4105C137.609 60.5791 135.6 61.5899 133.803 62.9163C127.27 67.7336 124.252 76.6385 125.897 84.6115C126.62 88.1024 128.151 91.5441 127.738 95.0893C127.418 97.8407 125.956 100.306 124.474 102.643C122.992 104.98 121.412 107.347 120.821 110.039C120.23 112.731 120.851 115.922 123.081 117.554C123.903 118.155 124.892 118.54 125.596 119.26C126.062 119.82 126.451 120.44 126.753 121.104C127.926 123.271 129.527 125.175 131.46 126.701C133.392 128.227 135.615 129.343 137.993 129.979C140.109 130.536 142.95 130.334 143.723 128.283C143.812 127.921 143.946 127.571 144.122 127.243C144.821 126.256 146.362 126.809 147.445 127.376C149.91 128.667 152.612 129.443 155.386 129.659C156.486 129.804 157.605 129.67 158.64 129.269C159.514 128.825 160.266 128.173 160.831 127.371C163.42 123.993 164.163 119.58 164.606 115.345C164.897 112.588 165.099 109.783 164.572 107.061C163.735 102.692 161.082 98.6099 161.475 94.1821C161.894 89.4485 165.729 85.5779 166.315 80.8691C166.613 78.4036 165.998 75.9144 164.587 73.8723C164.066 73.2418 163.625 72.5496 163.272 71.8113C163.104 71.4379 163.052 71.0226 163.122 70.6191C163.192 70.2156 163.382 69.8425 163.666 69.5481C163.978 69.3281 164.324 69.1615 164.69 69.055C167.856 67.8371 169.544 64.6617 169.771 61.4124C169.859 60.1797 169.771 59.0456 170.11 57.8425C170.652 55.9836 172.291 53.9522 172.011 51.97Z" fill="#BB7684"/>
<g opacity="0.1">
<path opacity="0.1" d="M142.655 127.218C142.479 127.547 142.344 127.896 142.251 128.258C141.793 129.481 140.597 130.043 139.263 130.181C141.119 130.369 143.103 129.92 143.728 128.258C143.82 127.896 143.956 127.547 144.132 127.218C144.256 127.037 144.426 126.892 144.624 126.799C143.876 126.582 143.108 126.592 142.655 127.218Z" fill="black"/>
<path opacity="0.1" d="M172.036 51.965C171.864 51.2242 171.496 50.5431 170.972 49.9927C168.747 47.1969 166.33 44.3272 163.017 43.0009C161.577 42.4378 160.029 42.2053 158.488 42.3204C159.534 42.3864 160.564 42.616 161.54 43.0009C164.853 44.3272 167.27 47.1969 169.495 49.9927C170.02 50.5431 170.387 51.2242 170.559 51.965C170.839 53.9373 169.205 55.9835 168.663 57.8079C168.304 59.011 168.407 60.1401 168.324 61.3777C168.092 64.6222 166.409 67.7877 163.238 69.0204C162.872 69.1269 162.526 69.2935 162.214 69.5134C161.93 69.8088 161.741 70.1831 161.671 70.5876C161.602 70.992 161.656 71.4081 161.825 71.7816C162.176 72.5197 162.616 73.2119 163.135 73.8426C164.547 75.8823 165.164 78.37 164.868 80.8344C164.277 85.5531 160.437 89.4188 160.024 94.1474C159.63 98.5851 162.288 102.658 163.12 107.022C163.642 109.743 163.445 112.549 163.155 115.305C162.712 119.541 161.973 123.959 159.379 127.331C158.816 128.133 158.065 128.785 157.193 129.23C156.683 129.453 156.138 129.589 155.583 129.629C156.629 129.754 157.69 129.616 158.67 129.23C159.544 128.797 160.299 128.157 160.87 127.366C163.465 123.993 164.203 119.575 164.646 115.34C164.937 112.583 165.139 109.778 164.612 107.056C163.78 102.692 161.121 98.6048 161.515 94.1819C161.939 89.4435 165.769 85.5778 166.36 80.8689C166.656 78.4045 166.039 75.9168 164.627 73.8771C164.107 73.2464 163.668 72.5542 163.317 71.8161C163.147 71.4426 163.094 71.0266 163.163 70.6221C163.232 70.2176 163.422 69.8434 163.706 69.548C164.018 69.328 164.364 69.1614 164.73 69.0549C167.9 67.8321 169.584 64.6567 169.815 61.4123C169.899 60.1746 169.815 59.0455 170.155 57.8424C170.682 55.9835 172.316 53.952 172.036 51.965Z" fill="black"/>
</g>
<path opacity="0.1" d="M153.397 225.98C154.24 226.903 155.327 227.569 156.531 227.902C157.735 228.235 159.008 228.222 160.205 227.864" fill="black"/>
<path opacity="0.1" d="M184.944 310.296C184.473 310.677 183.926 310.951 183.339 311.099C182.753 311.247 182.141 311.266 181.547 311.154" fill="black"/>
<path opacity="0.1" d="M51.7658 325.601C59.0878 325.601 65.0235 324.597 65.0235 323.358C65.0235 322.119 59.0878 321.114 51.7658 321.114C44.4437 321.114 38.5081 322.119 38.5081 323.358C38.5081 324.597 44.4437 325.601 51.7658 325.601Z" fill="#309975"/>
<path d="M414.731 370.273C422.053 370.273 427.989 369.269 427.989 368.03C427.989 366.791 422.053 365.786 414.731 365.786C407.409 365.786 401.473 366.791 401.473 368.03C401.473 369.269 407.409 370.273 414.731 370.273Z" fill="#309975"/>
<path opacity="0.1" d="M414.731 327.09C422.053 327.09 427.989 326.086 427.989 324.847C427.989 323.608 422.053 322.603 414.731 322.603C407.409 322.603 401.473 323.608 401.473 324.847C401.473 326.086 407.409 327.09 414.731 327.09Z" fill="#309975"/>
<path opacity="0.1" d="M89.3578 346.434C96.6799 346.434 102.616 345.429 102.616 344.19C102.616 342.951 96.6799 341.947 89.3578 341.947C82.0358 341.947 76.1001 342.951 76.1001 344.19C76.1001 345.429 82.0358 346.434 89.3578 346.434Z" fill="#309975"/>
<path d="M456.661 347.543C467.593 347.543 476.456 346.042 476.456 344.19C476.456 342.338 467.593 340.837 456.661 340.837C445.728 340.837 436.865 342.338 436.865 344.19C436.865 346.042 445.728 347.543 456.661 347.543Z" fill="#309975"/>
<path opacity="0.1" d="M172.04 378C196.717 378 216.722 374.614 216.722 370.436C216.722 366.259 196.717 362.873 172.04 362.873C147.363 362.873 127.359 366.259 127.359 370.436C127.359 374.614 147.363 378 172.04 378Z" fill="#309975"/>
<path d="M464.843 338.707C465.746 337.968 466.405 336.973 466.733 335.852C466.975 334.718 466.492 333.362 465.414 332.948C464.203 332.484 462.908 333.323 461.928 334.176C460.949 335.029 459.821 335.99 458.536 335.813C459.197 335.213 459.692 334.453 459.971 333.605C460.251 332.757 460.306 331.851 460.131 330.976C460.076 330.613 459.923 330.272 459.688 329.989C459.014 329.27 457.798 329.58 456.991 330.147C454.431 331.952 453.717 335.433 453.702 338.569C453.446 337.44 453.663 336.261 453.658 335.117C453.653 333.974 453.333 332.652 452.358 332.046C451.755 331.713 451.077 331.543 450.389 331.553C449.237 331.513 447.957 331.626 447.169 332.47C446.184 333.52 446.445 335.275 447.297 336.414C448.149 337.553 449.439 338.288 450.625 339.087C451.58 339.655 452.394 340.432 453.008 341.36C453.079 341.489 453.138 341.624 453.185 341.764H460.397C462.01 340.95 463.505 339.922 464.843 338.707Z" fill="#309975"/>
<path d="M422.918 362.665C423.82 361.927 424.478 360.931 424.804 359.81C425.045 358.676 424.567 357.345 423.484 356.906C422.273 356.443 420.979 357.281 419.999 358.134C419.019 358.987 417.892 359.949 416.607 359.771C417.268 359.172 417.762 358.411 418.042 357.563C418.321 356.715 418.376 355.81 418.202 354.934C418.149 354.57 417.995 354.229 417.759 353.948C417.089 353.228 415.868 353.539 415.066 354.106C412.506 355.91 411.792 359.391 411.777 362.527C411.516 361.398 411.733 360.22 411.728 359.076C411.723 357.932 411.403 356.61 410.429 356.004C409.824 355.679 409.145 355.517 408.459 355.536C407.307 355.496 406.027 355.609 405.24 356.453C404.255 357.503 404.516 359.258 405.368 360.397C406.219 361.536 407.509 362.271 408.701 363.07C409.654 363.639 410.466 364.416 411.078 365.343C411.149 365.472 411.209 365.607 411.256 365.747H418.468C420.083 364.925 421.58 363.888 422.918 362.665Z" fill="#309975"/>
<path d="M104.373 318.185C104.373 318.185 97.4565 294.661 105.673 277.349C109.172 270.106 110.229 261.922 108.686 254.027C107.925 250.286 106.822 246.624 105.392 243.085" stroke="#535461" stroke-width="2" stroke-miterlimit="10"/>
<path d="M110.488 232.144C110.488 235.028 105.274 243.386 105.274 243.386C105.274 243.386 100.066 235.028 100.066 232.144C100.044 231.445 100.163 230.749 100.415 230.097C100.668 229.445 101.048 228.85 101.534 228.348C102.02 227.846 102.602 227.447 103.245 227.175C103.888 226.902 104.579 226.762 105.277 226.762C105.975 226.762 106.666 226.902 107.309 227.175C107.952 227.447 108.533 227.846 109.019 228.348C109.505 228.85 109.886 229.445 110.138 230.097C110.39 230.749 110.509 231.445 110.488 232.144Z" fill="#309975"/>
<path d="M119.103 248.115C117.537 250.531 108.627 254.712 108.627 254.712C108.627 254.712 108.789 244.85 110.355 242.439C111.124 241.319 112.299 240.543 113.631 240.277C114.963 240.011 116.345 240.276 117.485 241.015C118.625 241.754 119.432 242.91 119.734 244.236C120.036 245.562 119.81 246.953 119.103 248.115Z" fill="#309975"/>
<path d="M118.729 275.401C116.159 276.703 106.357 275.806 106.357 275.806C106.357 275.806 111.462 267.379 114.032 266.082C115.26 265.505 116.665 265.43 117.948 265.873C119.23 266.317 120.29 267.243 120.901 268.456C121.512 269.67 121.627 271.074 121.222 272.37C120.816 273.667 119.922 274.754 118.729 275.401Z" fill="#309975"/>
<path d="M113.801 295.997C111.487 297.708 101.676 298.462 101.676 298.462C101.676 298.462 105.289 289.291 107.583 287.575C108.697 286.831 110.053 286.545 111.371 286.775C112.69 287.005 113.869 287.734 114.666 288.812C115.462 289.889 115.815 291.231 115.65 292.562C115.485 293.892 114.816 295.108 113.781 295.958L113.801 295.997Z" fill="#309975"/>
<path d="M97.6829 255.274C99.7506 257.281 109.365 259.362 109.365 259.362C109.365 259.362 107.012 249.791 104.935 247.784C103.935 246.861 102.615 246.365 101.256 246.402C99.8971 246.44 98.6064 247.008 97.6593 247.985C96.7121 248.962 96.1835 250.27 96.186 251.632C96.1886 252.994 96.7222 254.301 97.6731 255.274H97.6829Z" fill="#309975"/>
<path d="M92.2281 279.42C94.798 280.717 104.595 279.819 104.595 279.819C104.595 279.819 99.4896 271.393 96.9198 270.096C95.6892 269.506 94.2765 269.422 92.9851 269.863C91.6937 270.304 90.6265 271.235 90.0124 272.455C89.3983 273.676 89.2864 275.089 89.7007 276.391C90.1149 277.693 91.0223 278.78 92.2281 279.42Z" fill="#309975"/>
<path d="M90.1359 303.615C92.4497 305.331 102.261 306.08 102.261 306.08C102.261 306.08 98.6478 296.909 96.3537 295.198C95.2403 294.454 93.884 294.168 92.5655 294.398C91.247 294.628 90.0674 295.357 89.2709 296.434C88.4744 297.512 88.122 298.854 88.2867 300.185C88.4514 301.515 89.1205 302.731 90.1555 303.58L90.1359 303.615Z" fill="#309975"/>
<path d="M88.009 316.706C88.009 316.706 96.4323 315.03 98.6822 312.796C100.932 310.562 111.034 306.657 112.157 309.448C113.279 312.239 127.319 321.73 117.774 323.407C108.228 325.083 95.3099 325.641 92.5038 324.526C89.6976 323.412 88.009 316.706 88.009 316.706Z" fill="#A8A8A8"/>
<path opacity="0.2" d="M117.788 322.357C108.243 324.033 95.3247 324.59 92.5185 323.471C90.377 322.623 88.8903 318.54 88.3044 316.632L88.009 316.706C88.009 316.706 89.6927 323.407 92.5038 324.526C95.3148 325.645 108.228 325.083 117.774 323.407C120.531 322.914 121.318 321.79 121.023 320.35C120.801 321.272 119.841 321.997 117.788 322.357Z" fill="black"/>
<path d="M417.444 292.501C417.444 292.501 420.152 296.046 416.198 301.376C412.245 306.706 408.986 311.238 410.291 314.576C410.291 314.576 416.257 304.64 421.121 304.502C425.985 304.364 422.775 298.462 417.444 292.501Z" fill="#309975"/>
<path opacity="0.1" d="M417.444 292.501C417.681 292.844 417.868 293.22 418 293.615C422.736 299.187 425.257 304.389 420.703 304.517C416.464 304.641 411.379 312.234 410.158 314.152C410.198 314.301 410.246 314.447 410.3 314.591C410.3 314.591 416.267 304.655 421.131 304.517C425.995 304.379 422.775 298.462 417.444 292.501Z" fill="black"/>
<path d="M422.475 297.018C422.475 298.265 422.332 299.276 422.16 299.276C421.988 299.276 421.85 298.29 421.85 297.018C421.85 295.745 422.022 296.357 422.194 296.357C422.367 296.357 422.475 295.77 422.475 297.018Z" fill="#FFD037"/>
<path d="M424.198 298.507C423.105 299.103 422.15 299.463 422.071 299.31C421.993 299.157 422.805 298.556 423.898 297.959C424.991 297.363 424.562 297.797 424.646 297.959C424.73 298.122 425.291 297.91 424.198 298.507Z" fill="#FFD037"/>
<path d="M403.162 292.501C403.162 292.501 400.454 296.046 404.408 301.376C408.361 306.706 411.62 311.238 410.315 314.576C410.315 314.576 404.353 304.64 399.485 304.502C394.616 304.364 397.821 298.462 403.162 292.501Z" fill="#309975"/>
<path opacity="0.1" d="M403.162 292.501C402.925 292.844 402.738 293.22 402.606 293.615C397.87 299.187 395.349 304.389 399.903 304.517C404.142 304.641 409.227 312.234 410.448 314.152C410.409 314.301 410.359 314.448 410.3 314.591C410.3 314.591 404.339 304.655 399.47 304.517C394.601 304.379 397.821 298.462 403.162 292.501Z" fill="black"/>
<path d="M398.131 298.156C398.131 299.404 398.273 300.414 398.446 300.414C398.618 300.414 398.756 299.428 398.756 298.156C398.756 296.884 398.584 297.495 398.411 297.495C398.239 297.495 398.131 296.909 398.131 298.156Z" fill="#FFD037"/>
<path d="M396.408 298.507C397.501 299.103 398.451 299.463 398.534 299.31C398.618 299.157 397.801 298.556 396.708 297.959C395.615 297.363 396.043 297.797 395.96 297.959C395.876 298.122 395.315 297.91 396.408 298.507Z" fill="#FFD037"/>
<path d="M398.992 314.127C398.992 314.127 406.554 313.891 408.838 312.268C411.123 310.646 420.471 308.703 421.038 311.282C421.604 313.861 432.4 324.245 423.863 324.314C415.327 324.383 404.028 322.983 401.754 321.597C399.48 320.212 398.992 314.127 398.992 314.127Z" fill="#A8A8A8"/>
<path opacity="0.2" d="M424.011 323.432C415.474 323.501 404.176 322.1 401.902 320.715C400.169 319.66 399.475 315.868 399.248 314.117H398.992C398.992 314.117 399.484 320.227 401.749 321.612C404.014 322.998 415.322 324.398 423.858 324.329C426.32 324.329 427.172 323.432 427.127 322.135C426.783 322.929 425.842 323.417 424.011 323.432Z" fill="black"/>
</g>
<defs>
<linearGradient id="paint0_linear" x1="261.201" y1="346.542" x2="261.201" y2="10.7983" gradientUnits="userSpaceOnUse">
<stop stop-color="#808080" stop-opacity="0.25"/>
<stop offset="0.54" stop-color="#808080" stop-opacity="0.12"/>
<stop offset="1" stop-color="#808080" stop-opacity="0.1"/>
</linearGradient>
<clipPath id="clip0">
<rect width="497" height="378" fill="white"/>
</clipPath>
</defs>
</svg>
