<svg width="503" height="503" viewBox="0 0 503 503" fill="none" xmlns="http://www.w3.org/2000/svg">
<mask id="mask0" mask-type="alpha" maskUnits="userSpaceOnUse" x="0" y="0" width="503" height="503">
<circle cx="251.5" cy="251.5" r="251.5" fill="#1D3150"/>
</mask>
<g mask="url(#mask0)">
<circle cx="251.5" cy="251.5" r="251.5" fill="#1D3150"/>
<circle cx="251" cy="251" r="150" fill="#8AC7FF"/>
<path d="M319 315C323.8 321.4 330.333 355 333 371L339 369C357 357 393.8 317.8 397 257C405 204.2 365.667 157.667 345 141L339 145C328.333 153 308.2 170.2 313 175C319 181 317 177 329 177C338.6 177 333 186.333 329 191C321 194.333 304.6 203 303 211C301.4 219 295.667 229 293 233C286.333 247 272.6 276.2 271 281C269 287 269 291 271 295C272.6 298.2 278.333 300.333 281 301C291.667 303 314.2 308.6 319 315Z" fill="#CBE0BA" stroke="#ADC59B"/>
<path d="M223 367C215 379.8 210.334 388.333 209 391C199 387.667 179 380.2 179 377C179 373.8 176.333 365 175 361C175 357.667 174.2 349.8 171 345C167.8 340.2 165.667 337.667 165 337C163.667 336.333 161.4 332.6 163 323C164.6 313.4 159.667 304.333 157 301L141 291C127 289 111.4 284.2 105 249C98.6001 213.8 129 170.333 145 153L151 149C153.667 147 168.2 142.6 205 141C216.2 142.6 221.667 152.333 223 157V159L221 163C216.333 167 206.2 172.6 203 163C199.8 153.4 188.333 155 183 157C173 167.667 156.2 192.2 169 205C172.2 205 175.667 203.667 177 203C185 195.667 202.6 181.4 209 183C215.4 184.6 218.333 187.667 219 189C223 189.667 231 192.2 231 197C231 201.8 228.333 208.333 227 211C225 215 220.2 222.2 209 227C207 229 193 229 183 233C173 237 171 245 169 249C167.4 252.2 168.333 261 169 265C169 270.333 168.2 280.6 165 279C161 277 165 265 163 265C161.4 265 159.667 263.667 159 263L151 257C147 255.667 137.8 253.8 133 257C128.2 260.2 131 271.667 133 277C137.667 276.333 147.8 276.2 151 281C154.2 285.8 155 289.667 155 291L165 297C174.333 295.667 196.2 295.8 209 307C221.8 318.2 223.667 319.667 223 319C247 323 247 331 247 341C247 351 243 349 223 367Z" fill="#CBE0BA" stroke="#ADC59B"/>
<path d="M295 133C293.4 139.4 265 163.667 251 175C250.333 175.667 248.6 177 247 177C245.4 177 245 173 245 171C245 167 245.4 158.6 247 157C249 155 251 145 251 133C251 123.4 249.667 121 249 121H241C240.333 121 238.2 119.8 235 115C233.4 113.4 237 109 239 107H271C283.8 107 291 109.667 293 111L297 113C297.667 115 298.2 121.8 295 133Z" fill="#CBE0BA" stroke="#ADC59B"/>
<circle cx="251" cy="251" r="147" stroke="#6FA5D7" stroke-width="6"/>
<path fill-rule="evenodd" clip-rule="evenodd" d="M47.0453 561.123L93.7942 382.649C89.2221 341.057 89.4983 304.69 94.6226 273.549C97.6734 265.466 105.74 253.967 113.455 279.445C121.17 304.923 130.417 331.373 140.067 331.498C149.717 331.622 153.87 312.721 167.78 315.183C177.053 316.824 166.7 345.972 136.719 402.626L133.771 562.243L47.0453 561.123Z" fill="#997659" stroke="#816148" stroke-width="4"/>
<path fill-rule="evenodd" clip-rule="evenodd" d="M455.203 561.206L410.128 382.302C415.09 340.754 415.154 304.386 410.322 273.198C407.347 265.087 399.388 253.513 391.435 278.918C383.481 304.322 373.988 330.685 364.337 330.719C354.686 330.753 350.711 311.813 336.778 314.145C327.49 315.699 337.57 344.943 367.018 401.876L368.47 561.513L455.203 561.206Z" fill="#FEE3CD" stroke="#EACEB7" stroke-width="4"/>
</g>
</svg>
