<svg width="400" height="311" viewBox="0 0 400 311" fill="none" xmlns="http://www.w3.org/2000/svg">
<g clip-path="url(#clip0)">
<path d="M352.422 289.228C352.393 289.1 349.574 276.257 355.331 265.59C361.089 254.924 373.378 250.22 373.502 250.174L374.064 249.963L374.196 250.548C374.225 250.676 377.045 263.519 371.287 274.186C365.53 284.852 353.24 289.556 353.116 289.603L352.555 289.813L352.422 289.228ZM373.293 251.391C370.832 252.448 361.116 257.078 356.253 266.087C351.39 275.097 352.857 285.751 353.325 288.386C355.786 287.33 365.498 282.708 370.365 273.689C375.228 264.68 373.761 254.027 373.293 251.391Z" fill="#3F3D56"/>
<path d="M366.888 270.444C356.541 276.663 352.557 289.015 352.557 289.015C352.557 289.015 365.347 291.284 375.693 285.066C386.04 278.847 390.024 266.495 390.024 266.495C390.024 266.495 377.234 264.226 366.888 270.444Z" fill="#D0CDE1"/>
<path d="M142.092 233.026C140.862 233.026 139.619 233.007 138.399 232.968L138.427 232.083C140.178 232.138 141.966 232.153 143.726 232.129L143.738 233.015C143.19 233.022 142.642 233.026 142.092 233.026ZM149.075 232.821L149.023 231.936C150.777 231.833 152.554 231.687 154.304 231.504L154.396 232.385C152.633 232.57 150.843 232.717 149.075 232.821ZM133.068 232.683C131.298 232.547 129.511 232.37 127.754 232.154L127.862 231.275C129.606 231.488 131.379 231.665 133.135 231.799L133.068 232.683ZM159.692 231.708L159.559 230.833C161.303 230.568 163.059 230.262 164.779 229.92L164.952 230.789C163.218 231.133 161.449 231.442 159.692 231.708ZM122.471 231.384C120.723 231.088 118.959 230.748 117.228 230.373L117.416 229.507C119.134 229.879 120.884 230.217 122.619 230.51L122.471 231.384ZM170.164 229.629L169.951 228.769C171.662 228.346 173.382 227.879 175.065 227.381L175.317 228.23C173.622 228.733 171.888 229.203 170.164 229.629ZM112.037 229.121C110.323 228.666 108.598 228.165 106.91 227.631L107.177 226.787C108.852 227.316 110.564 227.813 112.265 228.264L112.037 229.121ZM180.4 226.595L180.109 225.759C181.769 225.182 183.439 224.559 185.073 223.905L185.402 224.728C183.756 225.386 182.073 226.014 180.4 226.595ZM101.843 225.901C100.178 225.29 98.5028 224.63 96.8641 223.941L97.2084 223.124C98.8346 223.808 100.497 224.463 102.149 225.07L101.843 225.901ZM190.302 222.637L189.935 221.831C191.529 221.107 193.132 220.334 194.698 219.534L195.102 220.324C193.523 221.13 191.909 221.908 190.302 222.637ZM199.791 217.791L199.352 217.022C200.881 216.15 202.408 215.234 203.888 214.298L204.362 215.047C202.87 215.99 201.333 216.913 199.791 217.791ZM208.804 212.095L208.296 211.369C209.736 210.364 211.173 209.312 212.567 208.241L213.108 208.944C211.703 210.023 210.255 211.083 208.804 212.095ZM73.626 210.848C72.1945 209.809 70.7646 208.721 69.3755 207.613L69.9289 206.921C71.3074 208.02 72.7265 209.1 74.147 210.13L73.626 210.848ZM217.264 205.6L216.692 204.922C218.034 203.791 219.37 202.612 220.662 201.418L221.264 202.069C219.962 203.272 218.616 204.46 217.264 205.6ZM65.2778 204.188C63.9446 203.022 62.6201 201.809 61.3412 200.583L61.9553 199.943C63.2246 201.161 64.539 202.365 65.862 203.522L65.2778 204.188ZM225.101 198.358L224.469 197.736C225.707 196.483 226.931 195.187 228.106 193.884L228.766 194.476C227.581 195.79 226.348 197.096 225.101 198.358ZM57.574 196.802C56.3508 195.517 55.1428 194.189 53.9835 192.855L54.6534 192.274C55.8039 193.599 57.0026 194.916 58.2167 196.191L57.574 196.802ZM232.25 190.432L231.564 189.869C232.682 188.51 233.783 187.108 234.836 185.701L235.546 186.231C234.485 187.649 233.376 189.063 232.25 190.432ZM50.5772 188.75C49.4787 187.363 48.3971 185.931 47.3623 184.495L48.0821 183.977C49.1091 185.403 50.1824 186.824 51.2727 188.2L50.5772 188.75ZM238.648 181.884L237.914 181.387C238.904 179.932 239.872 178.434 240.793 176.935L241.55 177.399C240.621 178.909 239.645 180.418 238.648 181.884ZM44.346 180.099C43.3796 178.619 42.4338 177.096 41.5346 175.572L42.2985 175.122C43.191 176.635 44.1297 178.146 45.0887 179.615L44.346 180.099ZM244.242 172.785L243.466 172.356C244.318 170.817 245.145 169.236 245.926 167.657L246.721 168.05C245.934 169.641 245.1 171.234 244.242 172.785H244.242ZM248.979 163.206L248.166 162.85C248.873 161.238 249.552 159.587 250.184 157.943L251.012 158.26C250.375 159.917 249.691 161.581 248.979 163.206H248.979ZM34.3879 161.294C33.708 159.664 33.0569 157.996 32.4527 156.337L33.2864 156.034C33.8857 157.681 34.5319 159.336 35.2064 160.953L34.3879 161.294ZM252.814 153.224L251.972 152.946C252.526 151.28 253.048 149.577 253.524 147.884L254.378 148.124C253.898 149.83 253.371 151.546 252.814 153.224ZM30.7443 151.283C30.2166 149.594 29.7207 147.869 29.2706 146.155L30.1285 145.93C30.5752 147.631 31.0674 149.343 31.5909 151.019L30.7443 151.283ZM255.705 142.956L254.841 142.756C255.238 141.048 255.601 139.304 255.92 137.573L256.792 137.733C256.471 139.478 256.105 141.235 255.705 142.956ZM28.0355 140.965C27.6656 139.235 27.3309 137.472 27.0407 135.724L27.9155 135.579C28.2037 137.314 28.5359 139.063 28.9029 140.78L28.0355 140.965ZM257.638 132.467L256.758 132.346C256.997 130.611 257.198 128.842 257.357 127.087L258.241 127.167C258.081 128.935 257.877 130.718 257.638 132.467ZM26.2876 130.444C26.0784 128.69 25.9067 126.904 25.777 125.134L26.6618 125.07C26.7902 126.826 26.9608 128.598 27.1685 130.339L26.2876 130.444ZM258.602 121.845L257.716 121.805C257.795 120.05 257.835 118.269 257.835 116.513H258.722C258.722 118.282 258.682 120.077 258.602 121.845ZM25.5083 119.807C25.478 118.72 25.4626 117.612 25.4624 116.513C25.4624 115.831 25.4682 115.151 25.4799 114.471L26.3669 114.487C26.3552 115.161 26.3493 115.836 26.3493 116.513C26.3495 117.604 26.3649 118.704 26.3948 119.782L25.5083 119.807ZM26.5773 109.197L25.6921 109.142C25.8028 107.372 25.9557 105.584 26.146 103.827L27.0277 103.923C26.8387 105.666 26.6873 107.44 26.5773 109.197H26.5773ZM257.262 103.792C257.085 102.045 256.842 101.194 256.584 99.4543L257.462 99.325C257.721 101.077 257.943 102.415 258.122 104.175L257.262 103.792ZM27.7182 98.6745L26.8417 98.5391C27.1135 96.7863 27.4292 95.0196 27.7802 93.2876L28.6494 93.4632C28.3012 95.1821 27.9878 96.9353 27.7183 98.6745H27.7182ZM255.689 94.2374C255.351 92.5091 254.969 90.7692 254.555 89.0664L255.416 88.857C255.834 90.5728 256.219 92.3261 256.56 94.0674L255.689 94.2374ZM29.8191 88.3004L28.9588 88.085C29.3895 86.3689 29.8665 84.6386 30.3766 82.9418L31.2258 83.1967C30.7198 84.8805 30.2465 86.5976 29.8191 88.3004ZM253.183 83.9529C252.688 82.2658 252.148 80.5688 251.576 78.9084L252.415 78.6203C252.991 80.2935 253.536 82.0039 254.034 83.7037L253.183 83.9529ZM32.8722 78.1494L32.0355 77.8556C32.6249 76.1807 33.2613 74.4977 33.9269 72.8535L34.7493 73.1858C34.0886 74.8172 33.457 76.4874 32.8722 78.1494ZM249.738 73.9431C249.091 72.3125 248.399 70.676 247.679 69.079L248.488 68.7151C249.213 70.3245 249.911 71.9735 250.563 73.6164L249.738 73.9431ZM36.8529 68.3156L36.047 67.9457C36.7877 66.3342 37.5761 64.718 38.3903 63.1424L39.1785 63.5486C38.3704 65.1124 37.588 66.7162 36.8529 68.3156ZM245.398 64.3127C244.604 62.7485 243.763 61.1811 242.898 59.6545L243.67 59.218C244.542 60.7565 245.389 62.3358 246.189 63.9121L245.398 64.3127ZM41.7208 58.8948L40.9521 58.4527C41.8368 56.9179 42.7699 55.3816 43.7254 53.8869L44.4729 54.3637C43.5247 55.8472 42.5986 57.3718 41.7208 58.8948ZM240.187 55.1136C239.25 53.6232 238.269 52.1384 237.27 50.7004L237.999 50.1955C239.005 51.6446 239.994 53.1406 240.938 54.6425L240.187 55.1136ZM47.4295 49.9642L46.7045 49.4537C47.727 48.0051 48.796 46.5611 49.8826 45.162L50.5833 45.705C49.5051 47.0937 48.4439 48.5266 47.4295 49.9642ZM234.154 46.4236C233.085 45.0251 231.972 43.6348 230.845 42.2915L231.525 41.7224C232.661 43.0761 233.782 44.4767 234.859 45.8858L234.154 46.4236ZM53.9276 41.5952L53.2525 41.0206C54.3999 39.6743 55.5958 38.3342 56.8068 37.0376L57.4551 37.642C56.2534 38.9289 55.0666 40.259 53.9276 41.5952ZM227.351 38.3132C226.16 37.0177 224.924 35.7337 223.678 34.4972L224.304 33.8686C225.559 35.1148 226.804 36.4084 228.004 37.7136L227.351 38.3132ZM61.1581 33.8547L60.5379 33.2214C61.8061 31.9819 63.1186 30.7564 64.4383 29.5792L65.029 30.2403C63.7192 31.4084 62.4168 32.6245 61.1581 33.8547V33.8547ZM219.836 30.8512C218.53 29.6682 217.182 28.5013 215.829 27.3832L216.395 26.7005C217.757 27.8271 219.116 29.0028 220.432 30.1949L219.836 30.8512ZM69.0598 26.8056L68.4998 26.1186C69.8716 25.0027 71.2892 23.902 72.7136 22.8473L73.2419 23.559C71.8282 24.6059 70.4211 25.6981 69.0598 26.8056H69.0598ZM77.5663 20.5072L77.0713 19.7721C78.5393 18.7853 80.0508 17.819 81.5637 16.8995L82.0245 17.6566C80.5232 18.569 79.0233 19.5281 77.5663 20.5072H77.5663ZM86.6074 15.0132L86.1817 14.2357C87.7349 13.3867 89.3275 12.563 90.9151 11.787L91.3048 12.5831C89.7293 13.3529 88.1489 14.1704 86.6074 15.0132ZM193.645 12.9603C192.067 12.1749 190.45 11.4161 188.84 10.705L189.199 9.89471C190.822 10.6111 192.451 11.3758 194.041 12.1673L193.645 12.9603ZM96.1071 10.3713L95.7546 9.55833C97.3777 8.85552 99.0381 8.18148 100.689 7.55481L101.004 8.3833C99.3655 9.005 97.7179 9.67385 96.1071 10.3713ZM183.935 8.67252C182.293 8.03635 180.612 7.42935 178.939 6.86866L179.222 6.02849C180.907 6.59372 182.601 7.20525 184.255 7.84662L183.935 8.67252ZM106 6.61838L105.724 5.77648C107.409 5.22444 109.129 4.70463 110.835 4.23198L111.072 5.08557C109.379 5.55476 107.673 6.07047 106 6.61838H106ZM173.877 5.30102C172.186 4.81928 170.461 4.37064 168.75 3.96764L168.953 3.10541C170.678 3.51144 172.416 3.96353 174.121 4.44873L173.877 5.30102ZM116.209 3.78789L116.012 2.92414C117.74 2.52979 119.5 2.17049 121.243 1.8564L121.401 2.72815C119.671 3.04008 117.924 3.39657 116.209 3.78789ZM163.565 2.87222C161.838 2.54838 160.079 2.26026 158.336 2.01583L158.459 1.13844C160.216 1.38483 161.989 1.67513 163.729 2.00133L163.565 2.87222ZM126.636 1.9081L126.519 1.02986C128.274 0.795803 130.06 0.598956 131.826 0.445371L131.903 1.32794C130.15 1.48066 128.379 1.67576 126.636 1.9081ZM153.073 1.39976C151.326 1.23535 149.548 1.10859 147.788 1.02358L147.831 0.138419C149.605 0.224297 151.396 0.351922 153.157 0.517641L153.073 1.39976ZM137.191 0.988108L137.154 0.102963C138.784 0.03504 140.445 0.000434155 142.092 0L142.494 0.000645568L142.491 0.886676L142.092 0.886031C140.458 0.886443 138.809 0.920832 137.191 0.988108Z" fill="#3F3D56"/>
<path d="M400 288.975H74.9448V289.861H400V288.975Z" fill="#3F3D56"/>
<path d="M265.193 140.004L269.628 208.671C269.628 208.671 280.271 235.695 279.827 261.39C279.827 261.39 275.836 271.58 278.94 273.352C282.045 275.124 283.818 276.453 282.045 277.782C280.271 279.111 278.94 282.212 280.271 283.098C281.601 283.984 282.045 285.313 281.601 285.313H268.297C268.297 285.313 270.958 278.668 266.967 276.896C262.976 275.124 265.193 270.694 265.193 270.694L235.481 183.863L211.978 263.605C211.978 263.605 215.969 266.263 212.865 267.592C209.761 268.921 208.43 266.263 209.761 268.921C211.091 271.58 209.317 272.909 209.317 273.352C209.317 273.795 196.013 272.023 196.013 272.023C196.013 272.023 202.665 266.263 199.561 264.934C196.457 263.605 195.126 262.276 196.013 261.39C196.9 260.504 200.448 252.087 200.448 252.087C200.448 252.087 202.222 220.19 202.665 218.861C203.109 217.532 202.665 211.329 202.665 208.228C202.665 205.127 202.222 192.723 203.552 189.622C204.883 186.521 206.213 148.421 213.308 143.991C220.404 139.561 265.193 140.004 265.193 140.004Z" fill="#2F2E41"/>
<path d="M208.874 271.137C208.874 271.137 217.743 289.3 211.535 291.515C205.326 293.73 197.344 291.958 195.57 294.616C193.796 297.275 174.284 300.376 173.841 293.73C173.397 287.085 195.127 274.681 195.127 274.681L197.957 270.127L208.874 271.137Z" fill="#2F2E41"/>
<path d="M280.714 284.427C280.714 284.427 289.584 302.591 283.375 304.806C277.167 307.021 269.184 305.249 267.411 307.907C265.637 310.565 246.124 313.666 245.681 307.021C245.238 300.375 266.967 287.971 266.967 287.971L269.798 283.418L280.714 284.427Z" fill="#2F2E41"/>
<path d="M239.694 56.4956C247.776 56.4956 254.328 49.9502 254.328 41.8761C254.328 33.802 247.776 27.2566 239.694 27.2566C231.612 27.2566 225.06 33.802 225.06 41.8761C225.06 49.9502 231.612 56.4956 239.694 56.4956Z" fill="#A0616A"/>
<path d="M249.673 49.6289L247.899 62.4763L234.595 72.6657L231.047 67.7925V50.958L249.673 49.6289Z" fill="#A0616A"/>
<path d="M228.83 66.0204C228.83 66.0204 242.577 67.3495 249.672 62.4763L263.863 146.206C263.863 146.206 213.752 150.193 211.535 147.535V121.397L220.404 78.8679L228.83 66.0204Z" fill="#3F3D56"/>
<path d="M248.451 58.4731L253.22 62.4763C253.22 62.4763 272.732 65.5774 271.402 70.8936L266.08 133.802L267.854 155.066C267.854 155.066 252.776 151.079 241.246 155.066C229.716 159.054 238.877 69.3859 238.877 69.3859C238.877 69.3859 249.447 59.7861 248.451 58.4731Z" fill="#D0CDE1"/>
<path d="M231.047 63.3223C231.047 63.3223 216.856 73.5517 215.082 80.197C213.308 86.8422 207.543 156.839 207.543 156.839C207.543 156.839 210.204 155.51 211.535 157.725C212.865 159.94 233.264 66.8263 231.047 63.3223Z" fill="#D0CDE1"/>
<path d="M225.068 41.2391C225.068 41.2391 223.483 38.8651 224.093 36.3085C224.457 34.857 224.6 33.3591 224.519 31.8649C224.519 31.8649 225.799 27.7257 227.078 25.4126C228.358 23.0995 227.749 22.1255 231.77 21.3951C235.792 20.6646 234.146 15.4297 244.749 21.0907C245.106 21.5896 245.604 21.9715 246.179 22.1882C246.753 22.4049 247.38 22.4466 247.978 22.3081C250.172 21.882 250.964 24.9256 250.964 24.9256C250.964 24.9256 252.426 24.0734 252.975 25.2908C253.523 26.5082 257.433 24.5601 257.433 32.7778C257.433 40.9954 252.983 48.3358 252.983 48.3358C252.983 48.3358 253.31 34.5128 246.059 33.1128C238.808 31.7127 231.008 27.6344 229.12 32.8693C228.1 35.8074 226.74 38.6164 225.068 41.2391Z" fill="#2F2E41"/>
<path d="M253.142 44.5257C253.932 44.5257 254.572 43.6728 254.572 42.6206C254.572 41.5685 253.932 40.7156 253.142 40.7156C252.352 40.7156 251.712 41.5685 251.712 42.6206C251.712 43.6728 252.352 44.5257 253.142 44.5257Z" fill="#A0616A"/>
<path d="M193.038 179.62C189.529 177.512 185.298 177.673 183.689 177.834C184.302 179.328 186.14 183.139 189.649 185.248C193.167 187.362 197.392 187.196 198.998 187.036C198.386 185.542 196.548 181.73 193.038 179.62Z" fill="#D0CDE1"/>
<path d="M209.527 221.452H187.596C186.287 221.452 185.032 221.971 184.106 222.896C183.181 223.82 182.661 225.074 182.661 226.381C182.661 227.689 183.181 228.943 184.106 229.867C185.032 230.792 186.287 231.311 187.596 231.311H209.527C210.835 231.31 212.089 230.79 213.014 229.866C213.938 228.941 214.457 227.688 214.457 226.381C214.457 225.075 213.938 223.822 213.014 222.897C212.089 221.973 210.835 221.453 209.527 221.452Z" fill="#D0CDE1"/>
<path d="M308.842 169.416H185.877C184.447 169.416 183.031 169.697 181.709 170.244C180.387 170.791 179.187 171.593 178.175 172.603C177.164 173.614 176.361 174.813 175.814 176.133C175.267 177.454 174.985 178.869 174.985 180.298V240.148C174.985 243.034 176.132 245.802 178.175 247.843C180.218 249.883 182.988 251.03 185.877 251.03H308.842C310.272 251.03 311.688 250.748 313.01 250.202C314.331 249.655 315.532 248.853 316.544 247.843C317.555 246.832 318.358 245.633 318.905 244.312C319.452 242.992 319.734 241.577 319.734 240.148V180.298C319.734 178.869 319.452 177.454 318.905 176.133C318.358 174.813 317.555 173.614 316.544 172.603C315.532 171.593 314.331 170.791 313.01 170.244C311.688 169.697 310.272 169.416 308.842 169.416ZM182.835 176.839C183.078 176.795 188.836 175.816 193.603 178.682C198.371 181.548 200.203 187.089 200.278 187.323L200.471 187.921L199.852 188.03C198.97 188.168 198.077 188.233 197.184 188.226C195.019 188.226 191.881 187.868 189.084 186.186C184.316 183.321 182.485 177.78 182.409 177.546L182.216 176.949L182.835 176.839ZM209.527 232.407H187.596C185.996 232.407 184.462 231.772 183.331 230.642C182.2 229.512 181.564 227.979 181.564 226.381C181.564 224.783 182.2 223.251 183.331 222.121C184.462 220.991 185.996 220.356 187.596 220.356H209.527C211.127 220.356 212.661 220.991 213.792 222.121C214.923 223.251 215.559 224.783 215.559 226.381C215.559 227.979 214.923 229.512 213.792 230.642C212.661 231.772 211.127 232.407 209.527 232.407ZM309.317 231.311C309.311 233.053 308.617 234.722 307.384 235.953C306.151 237.185 304.48 237.879 302.737 237.884H286.288C284.545 237.879 282.874 237.185 281.641 235.953C280.409 234.722 279.714 233.053 279.709 231.311V221.452C279.714 219.71 280.409 218.041 281.641 216.81C282.874 215.578 284.545 214.884 286.288 214.879H302.737C304.48 214.884 306.151 215.578 307.384 216.81C308.617 218.041 309.311 219.71 309.317 221.452L309.317 231.311Z" fill="#D0CDE1"/>
<path d="M291.497 229.394H284.369C283.86 229.394 283.372 229.596 283.012 229.955C282.652 230.315 282.45 230.802 282.45 231.311C282.45 231.819 282.652 232.307 283.012 232.666C283.372 233.026 283.86 233.228 284.369 233.228H291.497C292.006 233.228 292.494 233.026 292.854 232.666C293.214 232.307 293.416 231.819 293.416 231.311C293.416 230.802 293.214 230.315 292.854 229.955C292.494 229.596 292.006 229.394 291.497 229.394ZM291.497 232.133H284.369C284.261 232.133 284.154 232.112 284.054 232.071C283.954 232.029 283.863 231.969 283.786 231.893C283.71 231.816 283.649 231.726 283.608 231.626C283.566 231.526 283.545 231.419 283.545 231.311C283.545 231.203 283.566 231.096 283.608 230.996C283.649 230.896 283.71 230.806 283.786 230.729C283.863 230.653 283.954 230.592 284.054 230.551C284.154 230.51 284.261 230.489 284.369 230.489H291.497C291.605 230.489 291.712 230.51 291.812 230.551C291.912 230.592 292.003 230.653 292.08 230.729C292.156 230.806 292.217 230.896 292.259 230.996C292.3 231.096 292.321 231.203 292.321 231.311C292.321 231.419 292.3 231.526 292.259 231.626C292.217 231.726 292.156 231.816 292.08 231.893C292.003 231.969 291.912 232.029 291.812 232.071C291.712 232.112 291.605 232.133 291.497 232.133Z" fill="#D0CDE1"/>
<path d="M304.656 229.394H297.528C297.276 229.393 297.026 229.443 296.793 229.539C296.56 229.635 296.348 229.776 296.17 229.954C295.991 230.132 295.849 230.344 295.753 230.577C295.656 230.809 295.606 231.059 295.606 231.311C295.606 231.563 295.656 231.812 295.753 232.045C295.849 232.278 295.991 232.489 296.17 232.668C296.348 232.846 296.56 232.987 296.793 233.083C297.026 233.179 297.276 233.228 297.528 233.228H304.656C305.165 233.228 305.653 233.026 306.013 232.667C306.373 232.307 306.575 231.819 306.575 231.311C306.575 230.802 306.373 230.315 306.013 229.955C305.653 229.596 305.165 229.394 304.656 229.394ZM304.656 232.133H297.528C297.42 232.133 297.313 232.112 297.213 232.071C297.113 232.029 297.022 231.969 296.946 231.893C296.869 231.816 296.808 231.726 296.767 231.626C296.725 231.526 296.704 231.419 296.704 231.311C296.704 231.203 296.725 231.096 296.767 230.996C296.808 230.896 296.869 230.806 296.946 230.729C297.022 230.653 297.113 230.592 297.213 230.551C297.313 230.51 297.42 230.489 297.528 230.489H304.656C304.874 230.49 305.083 230.577 305.237 230.731C305.39 230.885 305.477 231.093 305.477 231.311C305.477 231.529 305.39 231.737 305.237 231.891C305.083 232.045 304.874 232.132 304.656 232.133Z" fill="#D0CDE1"/>
<path d="M291.497 224.464H284.369C283.86 224.464 283.372 224.666 283.012 225.026C282.652 225.385 282.45 225.873 282.45 226.381C282.45 226.89 282.652 227.377 283.012 227.737C283.372 228.096 283.86 228.298 284.369 228.298H291.497C291.749 228.299 291.999 228.249 292.232 228.153C292.465 228.057 292.677 227.916 292.856 227.738C293.034 227.56 293.176 227.348 293.273 227.116C293.369 226.883 293.419 226.633 293.419 226.381C293.419 226.129 293.369 225.88 293.273 225.647C293.176 225.414 293.034 225.203 292.856 225.025C292.677 224.847 292.465 224.705 292.232 224.609C291.999 224.513 291.749 224.464 291.497 224.464ZM291.497 227.203H284.369C284.151 227.203 283.942 227.116 283.788 226.962C283.633 226.808 283.547 226.599 283.547 226.381C283.547 226.163 283.633 225.954 283.788 225.8C283.942 225.646 284.151 225.56 284.369 225.56H291.497C291.715 225.56 291.924 225.646 292.079 225.8C292.233 225.954 292.319 226.163 292.319 226.381C292.319 226.599 292.233 226.808 292.079 226.962C291.924 227.116 291.715 227.203 291.497 227.203Z" fill="#D0CDE1"/>
<path d="M304.656 224.464H297.528C297.276 224.464 297.026 224.513 296.793 224.609C296.56 224.705 296.348 224.847 296.17 225.025C295.991 225.203 295.849 225.414 295.753 225.647C295.656 225.88 295.606 226.129 295.606 226.381C295.606 226.633 295.656 226.883 295.753 227.116C295.849 227.348 295.991 227.56 296.17 227.738C296.348 227.916 296.56 228.057 296.793 228.153C297.026 228.249 297.276 228.299 297.528 228.298H304.656C305.165 228.298 305.653 228.096 306.013 227.737C306.373 227.377 306.575 226.89 306.575 226.381C306.575 225.873 306.373 225.385 306.013 225.026C305.653 224.666 305.165 224.464 304.656 224.464ZM304.656 227.203H297.528C297.31 227.203 297.101 227.116 296.947 226.962C296.793 226.808 296.706 226.599 296.706 226.381C296.706 226.163 296.793 225.954 296.947 225.8C297.101 225.646 297.31 225.56 297.528 225.56H304.656C304.874 225.56 305.083 225.646 305.238 225.8C305.392 225.954 305.479 226.163 305.479 226.381C305.479 226.599 305.392 226.808 305.238 226.962C305.083 227.116 304.874 227.203 304.656 227.203Z" fill="#D0CDE1"/>
<path d="M291.497 219.534H284.369C283.86 219.534 283.372 219.736 283.012 220.096C282.652 220.455 282.45 220.943 282.45 221.452C282.45 221.96 282.652 222.448 283.012 222.807C283.372 223.167 283.86 223.369 284.369 223.369H291.497C292.006 223.369 292.494 223.167 292.854 222.807C293.214 222.448 293.416 221.96 293.416 221.452C293.416 220.943 293.214 220.455 292.854 220.096C292.494 219.736 292.006 219.534 291.497 219.534ZM291.497 222.273H284.369C284.151 222.273 283.942 222.187 283.788 222.032C283.633 221.878 283.547 221.669 283.547 221.452C283.547 221.234 283.633 221.025 283.788 220.871C283.942 220.716 284.151 220.63 284.369 220.63H291.497C291.715 220.63 291.924 220.716 292.079 220.871C292.233 221.025 292.319 221.234 292.319 221.452C292.319 221.669 292.233 221.878 292.079 222.032C291.924 222.187 291.715 222.273 291.497 222.273Z" fill="#D0CDE1"/>
<path d="M304.656 219.534H297.528C297.276 219.534 297.026 219.583 296.793 219.68C296.56 219.776 296.348 219.917 296.17 220.095C295.991 220.273 295.849 220.484 295.753 220.717C295.656 220.95 295.606 221.2 295.606 221.452C295.606 221.704 295.656 221.953 295.753 222.186C295.849 222.419 295.991 222.63 296.17 222.808C296.348 222.986 296.56 223.127 296.793 223.224C297.026 223.32 297.276 223.369 297.528 223.369H304.656C305.165 223.368 305.652 223.166 306.011 222.806C306.371 222.447 306.572 221.959 306.572 221.452C306.572 220.944 306.371 220.456 306.011 220.097C305.652 219.738 305.165 219.535 304.656 219.534ZM304.656 222.273H297.528C297.31 222.273 297.101 222.187 296.947 222.033C296.793 221.878 296.706 221.669 296.706 221.452C296.706 221.234 296.793 221.025 296.947 220.871C297.101 220.716 297.31 220.63 297.528 220.63H304.656C304.874 220.63 305.083 220.716 305.238 220.871C305.392 221.025 305.479 221.234 305.479 221.452C305.479 221.669 305.392 221.878 305.238 222.033C305.083 222.187 304.874 222.273 304.656 222.273Z" fill="#D0CDE1"/>
<path d="M270.071 155.952L266.893 166.315C266.893 166.315 266.08 185.634 255.437 182.976C244.794 180.318 258.541 157.724 258.541 157.724L261.646 152.851L270.071 155.952Z" fill="#A0616A"/>
<path d="M209.761 155.952L206.582 166.315C206.582 166.315 205.77 185.634 195.127 182.976C184.484 180.318 198.231 157.724 198.231 157.724L201.335 152.851L209.761 155.952Z" fill="#A0616A"/>
<path d="M267.854 67.7925C267.854 67.7925 274.949 66.0205 277.167 77.9819C279.384 89.9433 282.045 124.055 282.045 124.055L271.402 159.94C271.402 159.94 260.759 154.181 258.542 155.067L266.917 123.913L259.872 92.1584C259.872 92.1584 266.08 67.7925 267.854 67.7925Z" fill="#D0CDE1"/>
<path opacity="0.15" d="M257.538 92.7642L266.85 123.775L257.538 155.229L262.859 123.775L257.538 92.7642Z" fill="black"/>
<path d="M215.082 92.1584L199.118 155.067C199.118 155.067 207.539 157.843 210.643 160.058L215.082 92.1584Z" fill="#D0CDE1"/>
<path d="M47.6106 250.253C72.1021 250.253 91.9565 230.418 91.9565 205.951C91.9565 181.484 72.1021 161.649 47.6106 161.649C23.119 161.649 3.26465 181.484 3.26465 205.951C3.26465 230.418 23.119 250.253 47.6106 250.253Z" fill="#3F3D56"/>
<path opacity="0.1" d="M47.6106 244.05C68.6734 244.05 85.7481 226.993 85.7481 205.951C85.7481 184.909 68.6734 167.852 47.6106 167.852C26.5479 167.852 9.47314 184.909 9.47314 205.951C9.47314 226.993 26.5479 244.05 47.6106 244.05Z" fill="black"/>
<path d="M45.7832 228.433V222.888C42.9773 222.833 40.0745 221.845 38.3813 220.472L39.5423 216.794C41.5544 218.3 43.9946 219.127 46.5088 219.154C49.9438 219.154 52.2659 216.903 52.2659 213.774C52.2659 210.754 50.3791 208.887 46.7991 207.24C41.8645 205.044 38.8167 202.518 38.8167 197.742C38.8167 193.185 41.671 189.726 46.1219 188.902V183.357H49.1213V188.683C51.3579 188.713 53.5395 189.38 55.4106 190.604L54.2009 194.228C52.4064 193.001 50.28 192.35 48.1053 192.361C44.3803 192.361 42.9773 194.887 42.9773 197.083C42.9773 199.938 44.7673 201.365 48.9762 203.342C53.9591 205.648 56.4749 208.503 56.4749 213.389C56.4749 217.727 53.814 221.79 48.831 222.723V228.433H45.7832Z" fill="#309975"/>
<path d="M94.4568 296.064C63.1444 300.729 31.3125 300.729 0 296.064V285.431C31.3457 289.625 63.1111 289.625 94.4568 285.431V296.064Z" fill="#3F3D56"/>
<path d="M94.4568 279.672C63.1444 284.337 31.3125 284.337 0 279.672V269.04C31.3457 273.234 63.1111 273.234 94.4568 269.04V279.672Z" fill="#3F3D56"/>
<path d="M94.4568 263.281C63.1444 267.946 31.3125 267.946 0 263.281V252.648C31.3457 256.842 63.1111 256.842 94.4568 252.648V263.281Z" fill="#3F3D56"/>
</g>
<defs>
<clipPath id="clip0">
<rect width="400" height="311" fill="white"/>
</clipPath>
</defs>
</svg>
