<svg width="685" height="419" viewBox="0 0 685 419" fill="none" xmlns="http://www.w3.org/2000/svg">
<g clip-path="url(#clip0)">
<path d="M259.033 263.288C258.748 263.006 252.008 256.169 246.294 239.945C241.052 225.061 235.763 199.106 240.333 159.978C248.993 85.8522 204.588 38.6118 204.138 38.1432L205.453 36.8789C205.567 36.9977 216.984 49.0188 227.141 70.1224C240.587 98.1065 245.791 129.35 242.143 160.19C233.499 234.189 260.049 261.726 260.318 261.996L259.033 263.288Z" fill="#F2F2F2"/>
<path d="M190.504 36.9011C197.044 36.9011 202.346 31.5908 202.346 25.0402C202.346 18.4896 197.044 13.1793 190.504 13.1793C183.964 13.1793 178.662 18.4896 178.662 25.0402C178.662 31.5908 183.964 36.9011 190.504 36.9011Z" fill="#F2F2F2"/>
<path d="M237.156 70.5726C243.696 70.5726 248.997 65.2623 248.997 58.7117C248.997 52.1611 243.696 46.8508 237.156 46.8508C230.616 46.8508 225.314 52.1611 225.314 58.7117C225.314 65.2623 230.616 70.5726 237.156 70.5726Z" fill="#F2F2F2"/>
<path d="M219.292 104.995C225.832 104.995 231.134 99.6847 231.134 93.1341C231.134 86.5835 225.832 81.2732 219.292 81.2732C212.752 81.2732 207.451 86.5835 207.451 93.1341C207.451 99.6847 212.752 104.995 219.292 104.995Z" fill="#F2F2F2"/>
<path d="M255.213 121.568C261.753 121.568 267.055 116.258 267.055 109.707C267.055 103.157 261.753 97.8464 255.213 97.8464C248.673 97.8464 243.371 103.157 243.371 109.707C243.371 116.258 248.673 121.568 255.213 121.568Z" fill="#F2F2F2"/>
<path d="M225.351 168.317C231.891 168.317 237.193 163.006 237.193 156.456C237.193 149.905 231.891 144.595 225.351 144.595C218.811 144.595 213.51 149.905 213.51 156.456C213.51 163.006 218.811 168.317 225.351 168.317Z" fill="#F2F2F2"/>
<path d="M266.085 262.013C266.085 262.013 247.668 236.463 276.994 206.751L266.085 262.013Z" fill="#F2F2F2"/>
<path d="M251.812 264.958C251.812 264.958 239.224 236.077 198.766 246.246L251.812 264.958Z" fill="#F2F2F2"/>
<path d="M482.197 355.797C482.148 355.198 481.09 340.858 490.295 316.822C498.74 294.77 517.854 260.057 560.963 219.918C642.629 143.878 637.795 46.9036 637.736 45.9321L640.458 45.7689C640.473 46.0152 641.837 70.8061 632.969 104.722C621.182 149.672 596.848 190.325 562.819 221.919C481.292 297.829 484.869 355.004 484.914 355.573L482.197 355.797Z" fill="#F2F2F2"/>
<path d="M634.893 35.5028C644.68 35.5028 652.614 27.5561 652.614 17.7533C652.614 7.95058 644.68 0.00387573 634.893 0.00387573C625.106 0.00387573 617.172 7.95058 617.172 17.7533C617.172 27.5561 625.106 35.5028 634.893 35.5028Z" fill="#F2F2F2"/>
<path d="M655.431 119.202C665.218 119.202 673.152 111.255 673.152 101.452C673.152 91.6495 665.218 83.7028 655.431 83.7028C645.644 83.7028 637.71 91.6495 637.71 101.452C637.71 111.255 645.644 119.202 655.431 119.202Z" fill="#F2F2F2"/>
<path d="M601.736 141.062C611.523 141.062 619.457 133.115 619.457 123.312C619.457 113.51 611.523 105.563 601.736 105.563C591.949 105.563 584.015 113.51 584.015 123.312C584.015 133.115 591.949 141.062 601.736 141.062Z" fill="#F2F2F2"/>
<path d="M626.608 194.851C636.395 194.851 644.329 186.904 644.329 177.102C644.329 167.299 636.395 159.352 626.608 159.352C616.822 159.352 608.888 167.299 608.888 177.102C608.888 186.904 616.822 194.851 626.608 194.851Z" fill="#F2F2F2"/>
<path d="M547.304 219.096C557.091 219.096 565.025 211.149 565.025 201.346C565.025 191.543 557.091 183.597 547.304 183.597C537.517 183.597 529.583 191.543 529.583 201.346C529.583 211.149 537.517 219.096 547.304 219.096Z" fill="#F2F2F2"/>
<path d="M491.468 361.197C491.468 361.197 495.232 314.19 557.425 308.835L491.468 361.197Z" fill="#F2F2F2"/>
<path d="M472.353 350.683C472.353 350.683 485.986 305.545 430.04 277.813L472.353 350.683Z" fill="#F2F2F2"/>
<path d="M85.5687 310.848C79.6615 332.72 59.4282 346.265 59.4282 346.265C59.4282 346.265 48.7722 324.35 54.6794 302.478C60.5865 280.606 80.8199 267.061 80.8199 267.061C80.8199 267.061 91.4758 288.976 85.5687 310.848Z" fill="#309975"/>
<path d="M31.8298 310.848C37.7369 332.72 57.9703 346.265 57.9703 346.265C57.9703 346.265 68.6263 324.35 62.7191 302.478C56.8119 280.606 36.5786 267.061 36.5786 267.061C36.5786 267.061 25.9226 288.976 31.8298 310.848Z" fill="#309975"/>
<path d="M40.51 306.147C56.7194 321.952 58.6992 346.247 58.6992 346.247C58.6992 346.247 34.3985 344.919 18.1892 329.114C1.97985 313.309 0 289.014 0 289.014C0 289.014 24.3007 290.343 40.51 306.147Z" fill="#3F3D56"/>
<path d="M76.8884 306.147C60.6791 321.952 58.6992 346.247 58.6992 346.247C58.6992 346.247 82.9999 344.919 99.2092 329.114C115.419 313.309 117.398 289.014 117.398 289.014C117.398 289.014 93.0978 290.343 76.8884 306.147Z" fill="#3F3D56"/>
<path d="M685 393.261H5.9873V394.843H685V393.261Z" fill="#2F2E41"/>
<path d="M364.38 150.35C364.38 150.35 357.333 143.292 341.124 144.703C341.124 144.703 184.674 128.468 181.151 157.409C177.627 186.35 176.922 203.29 186.084 209.643C186.084 209.643 216.035 236.819 200.531 260.819L192.074 274.936L524.001 272.113C524.001 272.113 527.525 220.584 538.096 210.702C548.667 200.82 552.19 148.586 538.096 147.174C524.001 145.762 360.504 137.998 364.38 150.35Z" fill="#3F3D56"/>
<path d="M189.255 207.879C189.255 207.879 89.8883 231.172 129.353 274.936L135.696 281.289L132.877 378.699H590.95L595.883 283.407L601.521 272.113C601.521 272.113 636.63 229.937 535.213 214.673L516.954 260.819L208.283 258.701C208.283 258.701 206.168 206.467 189.255 207.879Z" fill="#3F3D56"/>
<path d="M170.227 372.346H141.333V394.228H170.227V372.346Z" fill="#3F3D56"/>
<path d="M586.017 372.346H557.124V394.228H586.017V372.346Z" fill="#3F3D56"/>
<path d="M359.02 261.172C359.02 261.172 290.031 212.114 204.054 261.525L178.684 298.23L183.617 328.582C183.617 328.582 361.914 331.406 364.028 312.347C366.142 293.289 359.02 261.172 359.02 261.172Z" fill="#3F3D56"/>
<path d="M520.478 261.525C520.478 261.525 399.439 222.702 363.058 261.525L367.552 317.288C367.552 317.288 544.438 330.7 547.257 321.524C550.076 312.347 551.486 296.112 551.486 296.112L520.478 261.525Z" fill="#3F3D56"/>
<path opacity="0.1" d="M520.478 261.525C520.478 261.525 399.439 222.702 363.058 261.525L363.158 262.769C363.039 262.191 362.971 261.878 362.971 261.878C362.971 261.878 290.031 212.114 204.054 261.525L178.684 298.23L183.617 328.582C183.617 328.582 356.265 332.261 367.357 314.871L367.551 317.288C367.551 317.288 544.438 330.7 547.257 321.524C550.076 312.347 551.486 296.112 551.486 296.112L520.478 261.525Z" fill="black"/>
<path d="M192.074 164.115C226.326 163.385 258.797 159.031 288.622 149.291C289.347 183.654 294.28 215.791 305.536 244.584C272.192 238.515 238.35 244.521 204.055 261.525C210.214 230.462 204.889 197.808 192.074 164.115Z" fill="#309975"/>
<path d="M542.324 169.762C508.072 169.032 475.601 164.678 445.776 154.938C445.051 189.301 440.118 221.438 428.863 250.231C462.207 244.162 496.049 250.168 530.344 267.172C524.184 236.109 529.509 203.455 542.324 169.762Z" fill="#309975"/>
<path d="M322.359 160.744C324.354 159.322 326.556 158.216 328.887 157.465C343.667 151.956 359.154 148.58 374.883 147.436C388.56 146.464 403.384 147.618 414.066 156.228C415.728 157.449 417.087 159.036 418.04 160.866C419.384 163.771 418.977 167.147 418.542 170.319C418.445 171.549 418.135 172.753 417.627 173.878C416.189 176.619 412.65 177.579 409.576 177.251C406.502 176.922 403.618 175.619 400.585 175.015C398.709 174.688 396.811 174.494 394.907 174.436L375.89 173.405C364.065 172.764 352.084 172.133 340.484 174.523C336.913 175.166 333.463 176.357 330.254 178.054C327.605 179.544 325.821 181.682 323.363 178.93C319.044 174.095 316.653 165.209 322.359 160.744Z" fill="#2F2E41"/>
<path d="M351.827 169.167C351.827 169.167 377.406 157.682 387.108 170.934C396.81 184.186 381.816 178.885 381.816 178.885L365.057 184.186L346.535 180.652L351.827 169.167Z" fill="#F2F2F2"/>
<path d="M353.15 160.774C353.15 160.774 356.678 177.56 354.032 181.977C351.386 186.394 369.026 192.578 369.026 192.578L385.784 185.511C385.784 185.511 381.374 158.124 385.784 152.823L353.15 160.774Z" fill="#FFB9B9"/>
<path opacity="0.1" d="M353.15 160.774C353.15 160.774 356.678 177.56 354.032 181.977C351.386 186.394 369.026 192.578 369.026 192.578L385.784 185.511C385.784 185.511 381.374 158.124 385.784 152.823L353.15 160.774Z" fill="black"/>
<path d="M336.623 362.607C339.146 367.453 340.782 372.703 342.451 377.906C342.476 378.08 342.537 378.246 342.63 378.395C342.724 378.543 342.847 378.67 342.993 378.767C343.139 378.864 343.303 378.929 343.476 378.958C343.649 378.987 343.826 378.979 343.995 378.935L359.684 378.917C361.62 378.915 364.217 378.292 364.197 376.353C364.183 374.991 362.793 374.141 361.758 373.257C358.886 370.802 358.138 366.755 356.949 363.166C354.637 356.253 350.181 350.259 344.232 346.058C343.427 345.428 342.502 344.969 341.513 344.712C340.519 344.568 339.505 344.623 338.532 344.874C335.778 345.431 325.494 347.335 327.437 351.347C328.273 353.075 331.373 354.873 332.673 356.487C334.188 358.392 335.511 360.442 336.623 362.607Z" fill="#575A89"/>
<path d="M391.178 344.382C390.625 345.547 390.009 346.68 389.334 347.778C387.061 351.533 384.379 355.035 382.262 358.88C380.942 361.279 379.831 363.871 379.685 366.606C379.539 369.341 380.501 372.252 382.679 373.908C384.956 375.639 388.079 375.719 390.909 375.316C393.74 374.912 396.554 374.1 399.405 374.314C398.443 368.866 403.031 364.071 404.178 358.659C404.5 357.139 404.548 355.563 404.98 354.07C405.445 352.705 406.039 351.388 406.756 350.138C409.04 345.682 410.654 340.912 411.547 335.984C411.655 335.386 397.601 335.288 396.283 335.574C392.169 336.465 392.77 340.965 391.178 344.382Z" fill="#575A89"/>
<path d="M282.858 258.791C278.846 265.079 279.77 273.413 282.588 280.322C285.406 287.23 289.89 293.338 292.96 300.138C294.917 304.473 296.289 309.07 298.493 313.285C301.221 318.504 305.205 323.104 307.037 328.703C308.204 332.272 308.471 336.184 310.362 339.427C311.505 341.16 312.809 342.781 314.258 344.267C318.33 348.94 321.388 354.411 323.236 360.331C324.964 355.175 330.139 351.794 335.454 350.679C340.769 349.564 346.276 350.322 351.652 351.082C348.653 346.428 345.625 341.715 343.837 336.473C342.108 331.404 341.597 326.01 340.433 320.781C338.044 310.059 332.942 300.169 327.89 290.417L353.854 288.355C358.092 287.928 362.352 287.77 366.61 287.881C373.312 288.197 379.877 289.842 386.543 290.603C393.209 291.364 400.26 291.164 406.201 288.041C394.841 304.366 388.926 323.87 389.299 343.765C391.838 341.795 394.784 340.418 397.923 339.735C401.062 339.053 404.313 339.082 407.439 339.821C410.565 340.56 413.486 341.99 415.989 344.006C418.492 346.022 420.513 348.573 421.905 351.472C432.079 337.545 430.87 318.157 438.932 302.905C440.59 299.769 442.622 296.848 444.411 293.785C447.95 287.728 450.517 281.16 453.069 274.623C455.324 268.846 457.596 262.417 455.433 256.604C454.535 254.398 453.227 252.384 451.578 250.667C446.926 245.53 440.451 241.73 433.529 241.572C422.903 241.329 414.124 249.218 404.802 254.334C393.823 260.36 381.013 262.755 368.525 261.87C355.72 260.962 343.491 256.764 331.292 253.066C325.19 251.131 318.987 249.528 312.711 248.265C307.48 247.282 302.497 248.371 297.342 249.711C291.729 251.17 286.088 253.727 282.858 258.791Z" fill="#2F2E41"/>
<path d="M393.723 143.989C393.717 151.016 390.927 157.754 385.966 162.723C381.005 167.692 374.278 170.486 367.262 170.492C365.686 170.495 364.112 170.353 362.561 170.068C357.609 169.172 353.015 166.881 349.317 163.462C345.62 160.044 342.972 155.64 341.685 150.768C340.397 145.895 340.524 140.756 342.05 135.953C343.575 131.15 346.437 126.882 350.298 123.651C354.16 120.419 358.861 118.357 363.851 117.707C368.841 117.057 373.913 117.846 378.471 119.981C383.03 122.116 386.885 125.508 389.587 129.761C392.288 134.013 393.723 138.949 393.723 143.989Z" fill="#FFB9B9"/>
<path d="M351.827 169.167C351.827 169.167 356.678 171.376 358.442 173.143C360.206 174.909 365.498 184.627 374.318 178.443C383.139 172.259 384.021 168.725 386.667 168.725C389.313 168.725 392.841 174.026 392.841 174.026L417.096 246.91C410.559 254.301 402.982 260.699 394.605 265.904C380.493 274.738 363.734 279.155 355.796 275.622C347.858 272.088 332.864 269.438 330.218 262.37C327.572 255.303 323.162 234.1 323.162 234.1L335.51 180.21L351.827 169.167Z" fill="#F2F2F2"/>
<path d="M348.421 242.88C350.344 238.719 350.624 234.01 350.787 229.429C351.046 224.891 350.926 220.34 350.428 215.822C349.646 209.912 347.725 204.219 346.511 198.383C345.448 193.265 344.931 188.047 344.969 182.819C344.986 180.434 345.159 177.922 346.457 175.922C347.362 174.527 348.778 173.446 349.344 171.881C350.454 168.813 347.713 165.6 344.709 164.336C341.135 162.833 337.051 162.934 333.291 163.877C329.531 164.821 326.025 166.555 322.551 168.278C320.042 169.522 317.48 170.805 315.534 172.822C312.796 175.659 311.592 179.612 310.62 183.436C309.842 186.497 309.151 189.689 309.743 192.791C310.704 197.829 314.804 201.618 316.99 206.256C319.528 211.642 319.357 217.919 318.348 223.788C317.338 229.658 315.546 235.397 314.993 241.327C314.441 247.257 315.289 253.632 318.998 258.287C320.51 260.184 324.61 264.68 327.378 264.171C329.551 263.771 332.703 258.978 334.454 257.459C339.514 253.069 345.516 249.165 348.421 242.88Z" fill="#2F2E41"/>
<path d="M394.632 166.286C394.71 171.213 392.541 175.897 389.991 180.111C387.441 184.325 384.446 188.311 382.566 192.865C380.231 198.566 379.754 204.86 381.204 210.849C381.743 212.888 382.393 214.897 383.15 216.866L387.983 230.143C388.633 232.231 389.576 234.215 390.785 236.036C391.878 237.431 393.159 238.666 394.593 239.706C398.264 242.675 402.488 244.882 407.02 246.199C411.567 247.403 416.541 247.327 420.837 245.409C421.303 227.411 424.19 209.557 429.42 192.331C430.386 189.151 431.442 185.803 430.697 182.564C429.862 178.936 426.953 176.212 424.187 173.724C415.729 166.117 406.427 158.125 395.106 157.1C388.553 156.506 394.577 162.724 394.632 166.286Z" fill="#2F2E41"/>
<path d="M336.751 268.999C337.422 270.314 337.839 271.746 338.503 273.066C339.482 274.835 340.692 276.465 342.102 277.913C347.999 284.463 355.208 290.987 364.005 291.382C364.878 291.464 365.76 291.353 366.586 291.057C368.125 290.416 369.034 288.765 369.334 287.122C369.957 283.701 368.45 280.287 366.94 277.155C363.668 270.368 359.986 263.407 353.86 259.03C347.821 254.714 339.73 253.666 332.687 255.839C329.496 256.824 324.205 258.543 328.43 261.459C331.635 263.671 334.893 265.356 336.751 268.999Z" fill="#FFB9B9"/>
<path d="M342.043 375.906C339.413 379.485 339.94 384.601 337.611 388.384C335.592 391.662 331.787 393.381 329.262 396.286C328.456 397.251 327.737 398.286 327.115 399.379C324.772 403.309 322.868 408.347 325.175 412.298C327.031 415.477 330.933 416.719 334.511 417.566C339.033 418.636 343.732 419.493 348.306 418.675C352.881 417.857 357.351 415.051 358.982 410.693C359.303 409.597 359.684 408.52 360.124 407.466C362.603 402.577 370.38 402.524 372.918 397.665C374.694 394.265 373.061 390.154 371.43 386.682L366.446 376.077C364.792 372.558 358.088 374.582 354.592 373.739C350.034 372.639 345.322 371.427 342.043 375.906Z" fill="#2F2E41"/>
<path d="M380.59 366.796C378.475 368.28 377.108 370.61 376.081 372.983C373.614 378.683 372.767 384.931 371.945 391.088C371.615 393.554 371.287 396.079 371.802 398.513C372.865 403.542 377.414 407.244 382.31 408.782C387.207 410.319 392.459 410.082 397.584 409.831C399.23 409.75 400.941 409.651 402.385 408.854C404.961 407.432 405.967 404.087 405.525 401.175C405.084 398.262 403.495 395.67 401.94 393.17C400.385 390.669 398.795 388.079 398.349 385.167C397.6 380.268 399.714 373.077 396.71 368.646C393.698 364.204 384.608 363.975 380.59 366.796Z" fill="#2F2E41"/>
<path d="M393.057 130.177C392.586 128.592 391.549 127.236 390.144 126.369C390.217 124.671 390.009 122.973 389.529 121.343C387.927 116.598 384.13 116.87 380.549 114.772C378.995 113.862 379.091 113.057 378.282 111.562C377.222 109.602 375.634 107.98 373.699 106.879C371.401 105.412 368.976 103.902 366.257 103.717C360.544 103.327 356.164 108.709 350.704 110.436C348.298 111.197 345.712 111.229 343.292 111.948C340.873 112.668 338.459 114.387 338.098 116.889C337.932 118.044 338.226 119.229 338.057 120.383C337.721 122.679 335.711 124.286 334.365 126.174C331.389 130.348 331.729 136.246 334.109 140.788C334.611 141.728 335.185 142.627 335.825 143.478C336.024 145.625 336.639 147.712 337.637 149.622C340.017 154.164 344.113 157.559 348.391 160.378C348.04 158.872 347.828 157.337 347.756 155.792C347.696 155.277 347.763 154.755 347.951 154.272C348.427 153.274 349.686 153.009 350.646 152.463C352.634 151.331 353.414 148.827 353.471 146.537C353.529 144.248 353.044 141.954 353.284 139.677C353.293 139.153 353.412 138.637 353.633 138.162C353.853 137.687 354.171 137.263 354.565 136.919C355.299 136.5 356.137 136.3 356.981 136.342C361.054 136.176 365.31 136.101 368.903 134.171C370.129 133.513 371.268 132.643 372.614 132.291C375.667 131.494 378.788 133.637 380.548 136.261C382.308 138.884 383.185 142.006 384.809 144.717C386.432 147.427 389.237 149.844 392.376 149.523C392.553 149.523 392.728 149.486 392.89 149.414C393.051 149.342 393.196 149.237 393.314 149.105C393.449 148.861 393.509 148.583 393.487 148.305L393.662 136.286C393.808 134.23 393.603 132.164 393.057 130.177Z" fill="#2F2E41"/>
<path d="M309.318 193.047C306.793 196.778 303.883 200.365 302.495 204.652C301.679 207.172 301.426 209.836 300.835 212.418C298.869 221.018 293.186 228.657 292.615 237.461C292.415 239.418 292.702 241.393 293.45 243.212C295.08 246.763 298.981 248.635 302.702 249.812C306.423 250.989 310.42 251.838 313.39 254.373C314.885 255.809 316.241 257.383 317.44 259.075C322.285 265.112 328.805 269.58 336.178 271.917C335.595 267.897 335.322 263.052 338.53 260.567C340.267 259.222 342.587 258.983 344.774 258.793L355.109 257.899C348.218 251.204 340.622 245.277 332.455 240.222C329.597 238.454 326.487 236.589 325.182 233.489C324.366 231.551 324.377 229.38 324.358 227.277C324.287 219.578 323.636 211.896 322.411 204.296C321.56 199.019 320.434 193.789 319.145 188.601C318.784 187.145 316.646 180.613 314.015 182.141C313.395 182.501 312.815 186.645 312.453 187.505C311.592 189.451 310.542 191.307 309.318 193.047Z" fill="#2F2E41"/>
<path opacity="0.1" d="M323.619 204.372C323.736 210.613 322.412 216.796 319.752 222.44C319.06 223.688 318.55 225.028 318.237 226.421C317.775 229.391 319.462 232.266 321.391 234.569C325.196 239.099 330.131 242.538 335.694 244.536" fill="black"/>
<path d="M389.464 172.715L390.086 172.814C389.542 172.727 389.053 172.428 388.729 171.981C388.405 171.534 388.271 170.976 388.358 170.431L394.793 129.705C394.88 129.16 395.179 128.671 395.625 128.346C396.071 128.021 396.628 127.887 397.172 127.974L396.55 127.875C396.983 127.944 397.398 128.097 397.772 128.327C398.146 128.556 398.471 128.857 398.729 129.212C398.987 129.568 399.172 129.971 399.275 130.398C399.377 130.825 399.395 131.268 399.326 131.702L393.284 169.934C393.216 170.368 393.063 170.784 392.834 171.158C392.604 171.533 392.304 171.859 391.949 172.117C391.594 172.375 391.192 172.561 390.766 172.663C390.339 172.766 389.897 172.784 389.464 172.715Z" fill="#2F2E41"/>
<path d="M396.329 127.841L397.273 127.991L390.187 172.831L389.243 172.681C389.084 172.656 388.931 172.599 388.793 172.515C388.656 172.43 388.536 172.32 388.441 172.189C388.347 172.058 388.278 171.91 388.241 171.753C388.203 171.595 388.197 171.432 388.222 171.273L394.924 128.865C394.949 128.705 395.005 128.552 395.089 128.414C395.174 128.276 395.284 128.156 395.415 128.061C395.546 127.966 395.693 127.898 395.85 127.86C396.007 127.822 396.17 127.816 396.329 127.841Z" fill="#309975"/>
<path d="M396.453 133.781L396.272 133.752C396.208 133.742 396.147 133.786 396.137 133.851L395.596 137.274C395.586 137.338 395.63 137.399 395.694 137.409L395.876 137.438C395.94 137.448 396.001 137.404 396.011 137.34L396.552 133.916C396.562 133.852 396.518 133.791 396.453 133.781Z" fill="#464353"/>
<path d="M412.458 164.881C413.431 162.427 414.42 159.888 414.353 157.248C414.186 154.855 413.461 152.534 412.239 150.472C410.752 147.704 408.896 145.152 406.721 142.886C404.133 140.188 400.394 137.78 396.864 139.004C394.061 139.976 392.463 142.899 391.426 145.682C390.809 147.042 390.565 148.542 390.719 150.027C391.063 151.943 392.54 153.415 393.611 155.04C395.29 157.588 396.009 160.633 396.699 163.607L398.428 171.065L401.399 183.877C401.321 183.539 406.917 178.231 407.581 177.101C409.721 173.46 410.9 168.811 412.458 164.881Z" fill="#FFB9B9"/>
<path d="M428.346 178.95L432.566 187.741C434.599 191.356 435.525 195.49 435.227 199.628L435.477 225.999C435.511 229.523 435.538 233.101 434.612 236.5C434.349 237.635 433.853 238.703 433.156 239.636C432.44 240.44 431.597 241.121 430.66 241.65C422.673 246.649 412.316 249.49 403.877 245.301C401.944 244.269 400.107 243.067 398.386 241.711C395.023 239.216 391.61 236.673 389.094 233.323C386.46 229.817 398.569 216.479 396.797 212.467C393.624 205.279 395.381 188.232 390.455 182.114C389.738 181.224 396.253 182.026 396.227 180.883C396.175 178.571 401.71 175.229 403.845 174.35C407.492 172.847 411.691 169.782 412.301 165.879C420.057 176.067 398.279 206.847 410.518 210.57C410.71 210.692 410.931 210.761 411.159 210.768C411.387 210.775 411.612 210.72 411.811 210.609C412.01 210.499 412.176 210.336 412.29 210.139C412.404 209.941 412.463 209.717 412.46 209.489C413.155 206.577 413.401 203.579 413.909 200.629C414.841 195.258 416.636 190.073 419.224 185.277C420.673 182.587 425.367 172.744 428.346 178.95Z" fill="#2F2E41"/>
<path opacity="0.1" d="M415.262 199.113C414.64 200.787 415.205 202.64 415.684 204.361C417.073 209.354 417.721 214.524 417.608 219.705C417.629 219.796 417.626 219.89 417.601 219.98C417.575 220.069 417.528 220.15 417.463 220.217C417.399 220.283 417.318 220.333 417.23 220.36C417.141 220.388 417.047 220.393 416.956 220.375C414.92 220.5 412.59 220.513 411.208 219.01" fill="black"/>
<path d="M88.1266 393.169H29.6341L19.4594 358.427C18.8394 356.31 18.7204 354.077 19.112 351.906C19.5036 349.734 20.3949 347.684 21.7152 345.918C23.0356 344.152 24.7486 342.718 26.7185 341.731C28.6884 340.743 30.861 340.229 33.0638 340.229H84.2333C86.4214 340.229 88.5798 340.736 90.5395 341.711C92.4992 342.686 94.2071 344.102 95.5294 345.848C96.8516 347.594 97.7524 349.623 98.1613 351.777C98.5701 353.93 98.4758 356.148 97.8858 358.259L88.1266 393.169Z" fill="#3F3D56"/>
<path d="M117.725 132.14C115.913 132.14 114.142 131.601 112.635 130.593C111.129 129.585 109.954 128.152 109.261 126.475C108.567 124.798 108.386 122.953 108.74 121.173C109.093 119.393 109.966 117.758 111.247 116.475C112.528 115.191 114.16 114.317 115.938 113.963C117.715 113.609 119.557 113.791 121.231 114.485C122.905 115.18 124.336 116.356 125.342 117.865C126.349 119.374 126.886 121.148 126.886 122.963C126.884 125.396 125.918 127.729 124.2 129.449C122.483 131.169 120.154 132.137 117.725 132.14ZM117.725 115.199C116.192 115.199 114.693 115.654 113.418 116.507C112.143 117.36 111.15 118.573 110.563 119.992C109.976 121.411 109.823 122.972 110.122 124.478C110.421 125.984 111.159 127.368 112.243 128.454C113.328 129.539 114.709 130.279 116.213 130.579C117.716 130.878 119.275 130.724 120.692 130.137C122.108 129.549 123.319 128.554 124.171 127.277C125.022 126 125.477 124.499 125.477 122.963C125.475 120.905 124.657 118.931 123.204 117.475C121.751 116.02 119.78 115.201 117.725 115.199Z" fill="#3F3D56"/>
<path d="M451.766 90.4932C449.954 90.4932 448.183 89.955 446.677 88.9467C445.17 87.9384 443.996 86.5052 443.302 84.8285C442.609 83.1517 442.428 81.3067 442.781 79.5267C443.135 77.7466 444.007 76.1116 445.288 74.8282C446.57 73.5449 448.202 72.671 449.979 72.3169C451.756 71.9628 453.598 72.1445 455.272 72.8391C456.946 73.5336 458.377 74.7098 459.384 76.2188C460.391 77.7278 460.928 79.502 460.928 81.3169C460.925 83.7497 459.959 86.0822 458.242 87.8025C456.524 89.5228 454.195 90.4905 451.766 90.4932ZM451.766 73.5523C450.233 73.5523 448.734 74.0077 447.46 74.8609C446.185 75.7141 445.191 76.9267 444.605 78.3455C444.018 79.7643 443.864 81.3255 444.163 82.8317C444.463 84.3378 445.201 85.7213 446.285 86.8072C447.369 87.8931 448.75 88.6326 450.254 88.9322C451.758 89.2318 453.317 89.0781 454.733 88.4904C456.15 87.9027 457.36 86.9075 458.212 85.6306C459.064 84.3537 459.518 82.8526 459.518 81.3169C459.516 79.2583 458.699 77.2847 457.245 75.8291C455.792 74.3734 453.822 73.5546 451.766 73.5523Z" fill="#3F3D56"/>
<path d="M301.659 23.9996H283.336V5.64697H301.659V23.9996ZM284.746 22.5878H300.25V7.05871H284.746V22.5878Z" fill="#3F3D56"/>
</g>
<defs>
<clipPath id="clip0">
<rect width="685" height="419" fill="white"/>
</clipPath>
</defs>
</svg>
